<svg width="1280" height="1972" viewBox="0 0 1280 1972" fill="none" xmlns="http://www.w3.org/2000/svg">
<path d="M-668 647.211C-581.334 578.099 -488.664 515.616 -387.186 488.092C-285.909 460.768 -174.224 472.421 -92.7622 541.533C4.51178 624.107 50.1465 778.003 160.831 834.86C232.485 871.627 316.149 859.572 395.609 853.344C475.27 847.116 562.136 850.33 620.981 909.598C726.461 1015.88 688.832 1246.12 803.119 1339.74C878.577 1401.42 983.457 1373.3 1077.13 1380.53C1195.62 1389.77 1306.9 1463.5 1371.95 1576.01C1437 1688.52 1454.41 1837.6 1418.39 1971" stroke="#1C2226" stroke-miterlimit="10"/>
<path d="M-657.192 630.134C-570.926 562.026 -478.256 501.151 -377.379 475.033C-316.533 459.161 -251.883 457.353 -192.438 473.426C-153.609 483.873 -116.981 502.156 -84.9565 528.876C12.1174 610.244 59.5534 760.725 167.636 819.591C206.065 840.486 247.497 847.92 290.529 849.326C326.957 850.531 364.385 847.518 401.213 845.308C452.853 842.093 507.895 841.892 556.331 857.161C583.152 865.6 607.971 878.659 629.187 898.348C671.019 936.922 692.435 992.976 709.648 1052.85C734.667 1139.04 751.48 1233.46 806.322 1294.74C812.126 1301.37 818.531 1307.4 825.336 1313.22C900.193 1376.31 1000.67 1354.21 1088.94 1365.46C1175.4 1376.71 1256.66 1425.33 1318.31 1500.27C1336.12 1521.97 1352.14 1545.88 1366.35 1571.59C1391.77 1618 1410.38 1670.04 1421.79 1724.08C1439 1804.45 1440.4 1889.03 1423.79 1966.78" stroke="#23292E" stroke-miterlimit="10"/>
<path d="M-646.583 612.856C-560.518 545.954 -468.048 486.685 -367.571 461.572C-306.925 446.303 -242.876 444.896 -183.831 460.969C-145.202 471.416 -108.774 489.297 -76.7499 515.817C20.1238 595.779 68.9609 743.045 174.641 803.72C212.67 825.418 253.101 834.86 295.733 837.874C331.961 840.486 369.59 838.477 406.618 836.669C458.657 834.258 514.1 834.057 563.137 848.12C590.157 855.956 615.177 868.01 637.193 886.695C680.026 922.858 703.644 975.497 723.059 1032.35C751.28 1114.12 772.496 1205.34 828.138 1267.42C834.143 1274.05 840.348 1280.28 847.153 1286.1C921.61 1350.39 1017.28 1334.32 1100.15 1349.99C1181.21 1365.26 1256.26 1416.49 1314.11 1493.44C1330.92 1515.74 1346.33 1540.25 1359.94 1566.57C1384.56 1613.98 1403.38 1666.82 1415.99 1721.27C1434.8 1802.24 1440.2 1886.22 1428.6 1961.96" stroke="#2A2F37" stroke-miterlimit="10"/>
<path d="M-635.976 595.779C-550.31 529.881 -457.84 472.22 -357.764 448.312C-297.518 433.847 -234.07 432.641 -175.425 448.714C-137.196 459.161 -100.968 476.841 -68.9441 502.959C27.9296 581.715 78.368 725.767 181.647 788.049C219.075 810.752 258.705 822.002 301.138 826.422C337.165 830.441 374.794 829.235 412.222 828.231C464.662 826.623 520.705 826.422 570.142 839.281C597.563 846.513 622.982 857.764 645.399 875.042C689.433 908.795 714.852 957.817 736.669 1011.86C768.293 1089.41 793.912 1177.01 850.155 1240.09C856.16 1246.72 862.365 1253.15 869.17 1259.18C943.226 1324.88 1034.3 1314.83 1111.55 1334.52C1187.41 1353.81 1255.86 1407.65 1310.31 1486.81C1326.12 1509.71 1340.73 1535.03 1353.94 1561.75C1377.76 1610.37 1396.77 1663.81 1410.38 1718.66C1431 1800.23 1440.2 1883.6 1433.6 1957.14" stroke="#31363F" stroke-miterlimit="10"/>
<path d="M-625.368 578.702C-539.903 514.009 -447.633 457.956 -348.157 435.052C-288.312 421.189 -225.264 420.386 -167.019 436.458C-128.99 446.906 -92.9631 464.385 -61.1388 489.9C35.7349 567.451 87.5743 708.288 188.451 772.378C225.479 795.884 264.109 808.943 306.141 815.172C341.968 820.395 379.797 820.395 417.626 819.993C470.466 819.19 526.909 818.788 577.147 830.641C604.768 837.071 630.588 847.719 653.605 863.59C698.839 894.932 726.06 940.74 750.279 991.369C785.105 1064.5 815.128 1148.88 872.372 1212.77C878.376 1219.6 884.781 1226.03 891.386 1232.06C964.842 1298.96 1051.51 1294.94 1123.36 1318.85C1193.82 1342.16 1255.86 1398.61 1306.7 1479.98C1321.51 1503.69 1335.32 1529.4 1348.13 1556.73C1371.15 1606.35 1390.37 1660.8 1405.18 1715.85C1427.59 1798.02 1440.4 1880.79 1439 1952.32" stroke="#383C47" stroke-miterlimit="10"/>
<path d="M-614.759 561.424C-529.494 497.735 -437.424 443.289 -338.349 421.591C-278.904 408.331 -216.456 408.13 -158.412 424.002C-120.583 434.449 -84.756 451.727 -53.1319 476.841C43.5417 553.186 97.1825 690.809 195.457 756.506C232.085 781.017 269.714 795.884 311.546 803.519C347.173 810.149 385.202 811.153 423.231 811.153C476.271 811.153 533.514 810.751 584.153 821.4C612.174 827.226 638.194 836.87 661.612 851.536C708.047 880.467 737.269 922.859 763.69 970.474C801.718 1039.39 836.345 1120.35 894.189 1185.04C900.394 1191.88 906.598 1198.51 913.203 1204.73C986.259 1272.84 1068.32 1275.05 1134.57 1302.98C1199.82 1330.5 1255.26 1389.37 1302.7 1472.75C1316.51 1497.06 1329.52 1523.58 1341.93 1551.3C1364.15 1601.93 1383.56 1657.18 1399.37 1712.43C1423.39 1795 1440.2 1877.38 1443.81 1946.89" stroke="#3F4350" stroke-miterlimit="10"/>
<path d="M-604.152 544.346C-519.287 481.663 -427.217 429.025 -328.542 408.331C-269.497 395.674 -207.45 395.875 -150.006 411.747C-112.578 422.194 -76.9507 439.271 -45.3266 463.983C51.347 539.123 106.389 673.531 202.262 740.835C238.489 766.351 275.117 783.026 316.749 792.067C352.176 799.902 390.205 802.112 428.634 802.715C482.075 803.519 539.718 803.117 590.957 812.761C619.179 817.984 645.599 826.824 669.617 840.084C717.053 866.604 748.477 905.581 777.099 950.182C818.531 1014.67 857.36 1092.43 916.005 1157.92C922.21 1164.75 928.614 1171.38 935.219 1177.81C1007.87 1247.33 1085.33 1255.56 1146.18 1287.71C1206.03 1319.25 1255.26 1380.93 1298.9 1466.32C1311.71 1491.23 1324.12 1518.35 1335.92 1546.68C1357.34 1598.52 1376.96 1654.37 1393.97 1710.02C1419.79 1793.2 1440.4 1874.97 1449.01 1942.47" stroke="#464958" stroke-miterlimit="10"/>
<path d="M-593.344 527.068C-508.679 465.59 -416.809 414.559 -318.735 394.87C-260.09 383.017 -198.643 383.418 -141.4 399.29C-104.172 409.737 -68.7447 426.614 -37.3207 450.723C59.1527 524.456 115.796 656.052 209.067 724.963C244.894 751.483 280.521 769.766 321.752 780.615C356.979 789.857 395.208 792.871 433.838 794.076C487.679 795.683 545.923 795.081 597.562 803.72C626.184 808.341 653.005 816.176 677.423 828.431C726.06 852.54 759.285 887.901 790.309 929.69C834.943 989.962 878.176 1064.3 937.821 1130.6C944.026 1137.63 950.431 1144.26 957.036 1150.69C1029.29 1221.41 1102.15 1235.87 1157.39 1272.04C1212.03 1307.8 1254.66 1371.89 1294.89 1459.49C1306.7 1485.2 1318.31 1512.73 1329.72 1541.86C1350.34 1594.7 1369.95 1651.56 1388.16 1707.41C1415.58 1791.19 1440.2 1872.55 1453.81 1937.85" stroke="#4D5060" stroke-miterlimit="10"/>
<path d="M-582.735 509.991C-498.271 449.517 -406.601 400.094 -308.927 381.61C-250.482 370.359 -189.636 371.163 -132.993 387.035C-95.9644 397.281 -60.9378 414.157 -29.3137 437.865C67.1597 510.393 125.204 638.974 216.073 709.292C251.5 736.616 286.326 756.908 327.158 769.163C362.184 779.611 400.613 783.83 439.643 785.638C493.884 788.049 552.529 787.446 604.969 794.88C633.791 798.898 661.011 805.93 686.031 816.779C735.868 838.477 771.095 870.421 804.321 909.197C852.357 965.049 899.993 1036.17 960.239 1103.27C966.444 1110.31 972.849 1117.14 979.454 1123.77C1051.11 1195.89 1119.76 1216.59 1169.2 1256.57C1218.84 1296.55 1254.66 1363.05 1291.49 1452.66C1302.3 1478.97 1313.11 1507.3 1324.12 1536.84C1343.93 1590.68 1363.75 1648.34 1383.16 1704.59C1412.38 1788.98 1440.8 1869.74 1459.42 1933.03" stroke="#545669" stroke-miterlimit="10"/>
<path d="M-572.127 492.914C-488.063 433.646 -396.194 385.829 -299.12 368.35C-241.076 357.702 -180.63 358.907 -124.387 374.779C-87.7589 385.026 -52.7322 401.5 -21.3083 425.006C75.1651 496.329 134.61 621.696 223.078 693.822C258.104 722.151 291.93 744.251 332.561 758.113C367.387 769.967 405.817 775.191 445.247 777.601C499.888 780.816 558.933 780.213 611.974 786.441C641.196 789.857 668.817 795.884 694.036 805.528C745.075 824.815 782.303 853.344 817.73 889.106C868.969 940.739 921.009 1008.45 982.055 1076.35C988.46 1083.38 994.865 1090.42 1001.27 1097.05C1072.52 1170.38 1136.57 1197.5 1180.61 1241.3C1225.04 1285.7 1254.26 1354.61 1287.49 1446.23C1297.3 1473.15 1307.5 1502.08 1317.91 1532.22C1336.93 1587.06 1356.94 1645.53 1377.36 1702.18C1408.38 1787.17 1440.6 1867.33 1464.22 1928.61" stroke="#5B5D71" stroke-miterlimit="10"/>
<path d="M-561.519 475.635C-477.655 417.372 -385.985 371.163 -289.512 354.889C-231.868 345.045 -172.022 346.652 -115.98 362.323C-79.5518 372.569 -44.7253 388.843 -13.5016 411.746C82.7717 481.864 143.618 604.217 229.884 677.75C264.31 707.082 297.335 730.991 337.566 746.26C372.192 759.52 410.821 765.547 450.451 768.561C505.493 772.579 565.139 771.976 618.579 776.999C648.002 779.811 676.023 784.834 701.843 793.272C754.083 810.149 793.112 835.262 830.941 868.01C885.583 915.224 942.025 979.716 1003.87 1048.23C1010.28 1055.46 1016.68 1062.49 1023.29 1069.32C1094.14 1144.06 1153.79 1177.41 1192.02 1225.23C1231.25 1273.85 1253.86 1345.17 1283.69 1438.99C1292.49 1466.72 1301.9 1496.25 1311.91 1526.79C1330.12 1582.84 1350.34 1642.11 1371.95 1698.97C1404.58 1784.56 1440.8 1864.12 1469.43 1923.38" stroke="#626379" stroke-miterlimit="10"/>
<path d="M-550.911 458.558C-467.247 401.5 -375.778 356.898 -279.705 341.629C-222.461 332.387 -163.016 334.397 -107.574 350.067C-71.3462 360.314 -36.92 376.386 -5.69621 398.888C90.577 467.8 152.824 587.341 236.688 662.079C270.714 692.416 302.738 718.132 342.769 735.009C377.195 749.474 416.025 756.707 455.855 760.323C511.097 765.145 571.343 764.341 625.384 768.36C655.207 770.57 683.428 774.789 709.848 781.821C763.289 796.286 804.32 817.984 844.351 847.719C902.395 890.713 963.041 951.589 1025.69 1021.1C1032.09 1028.34 1038.7 1035.37 1045.1 1042.4C1115.56 1118.34 1170.6 1158.32 1203.42 1209.76C1237.25 1263 1253.46 1336.53 1279.68 1432.16C1287.49 1460.49 1296.09 1490.63 1305.7 1521.77C1323.11 1578.83 1343.53 1638.9 1366.15 1696.16C1400.57 1782.35 1440.6 1861.3 1474.23 1918.56" stroke="#696A82" stroke-miterlimit="10"/>
<path d="M-540.303 441.28C-457.04 385.226 -365.57 342.232 -269.897 328.168C-213.054 319.529 -154.209 321.94 -98.9674 337.611C-62.94 347.857 -28.7139 363.729 2.30968 385.829C98.3828 453.335 162.231 570.063 243.693 646.408C277.319 677.75 308.343 705.274 348.173 723.557C382.399 739.429 421.228 747.666 461.659 751.684C517.302 757.31 578.148 756.506 632.789 759.319C663.012 760.926 691.634 764.141 718.455 769.967C773.296 782.021 816.129 800.304 858.361 827.025C919.808 865.6 984.857 923.26 1048.11 993.578C1054.71 1000.81 1061.12 1008.04 1067.52 1015.28C1137.37 1092.43 1187.81 1139.04 1215.23 1194.09C1243.85 1251.75 1253.46 1327.49 1276.28 1425.33C1283.08 1454.46 1291.09 1485.2 1300.1 1516.75C1316.71 1574.81 1337.33 1635.68 1361.14 1693.34C1397.37 1780.14 1441.2 1858.49 1479.83 1913.74" stroke="#70708A" stroke-miterlimit="10"/>
<path d="M-529.494 424.203C-446.431 369.355 -355.161 327.967 -260.089 314.908C-203.646 307.073 -145.202 309.685 -90.5602 325.356C-54.9331 335.602 -20.9071 351.273 10.1165 372.77C106.19 439.07 171.239 552.784 250.499 630.536C283.725 663.083 313.748 692.014 353.178 712.105C387.203 729.383 426.233 738.625 466.864 743.246C522.907 749.675 584.153 748.871 639.395 750.479C669.818 751.483 698.841 753.894 726.061 758.515C782.104 767.958 826.938 783.026 871.372 806.733C936.021 841.089 1005.47 895.334 1069.72 966.456C1076.33 973.889 1082.73 981.122 1089.14 988.355C1158.59 1066.91 1204.43 1119.95 1226.24 1178.62C1249.46 1240.9 1252.66 1318.85 1272.08 1418.7C1277.88 1448.44 1285.09 1479.78 1293.69 1511.92C1309.51 1571.19 1330.32 1632.87 1355.14 1690.53C1392.97 1777.93 1440.81 1855.68 1484.44 1908.72" stroke="#777792" stroke-miterlimit="10"/>
<path d="M-518.887 407.125C-436.024 353.282 -344.954 313.703 -250.282 301.648C-194.04 294.416 -136.196 297.63 -81.9542 313.1C-46.5273 323.347 -12.7015 338.816 18.3221 359.912C114.195 425.006 180.646 535.908 257.704 614.865C290.329 648.417 319.551 679.156 358.781 700.653C392.607 719.137 431.837 729.383 472.668 734.808C529.111 742.041 590.958 741.036 646.6 741.639C677.424 742.04 706.846 743.447 734.467 746.862C791.711 753.894 838.546 765.547 885.182 786.04C953.233 815.975 1026.89 867.006 1091.94 938.931C1098.54 946.365 1105.15 953.798 1111.35 961.232C1180.41 1040.99 1221.44 1100.66 1238.05 1163.15C1255.86 1229.85 1252.66 1310.01 1268.47 1411.87C1273.28 1442.21 1279.68 1474.35 1287.89 1506.9C1302.9 1567.17 1323.92 1629.66 1349.94 1687.72C1389.57 1775.72 1441.2 1852.87 1489.84 1903.9" stroke="#7E7E9B" stroke-miterlimit="10"/>
<path d="M-508.279 389.847C-425.816 337.209 -334.747 299.037 -240.475 288.187C-184.633 281.557 -127.389 285.174 -73.3479 300.845C-38.1211 311.091 -4.49551 326.36 26.3279 347.054C122.201 410.943 190.052 519.032 264.709 599.395C296.934 633.952 325.355 666.499 364.185 689.402C397.811 709.292 437.04 720.543 478.272 726.37C535.115 734.406 597.362 733.402 653.605 732.799C684.629 732.397 714.451 733 742.673 735.21C801.117 739.831 849.754 748.068 898.792 765.547C970.246 791.062 1048.31 838.879 1113.96 911.608C1120.76 919.041 1127.17 926.676 1133.57 934.11C1202.02 1015.28 1238.45 1081.38 1249.66 1147.47C1261.87 1218.8 1252.46 1301.17 1264.87 1405.04C1268.67 1436.18 1274.28 1468.73 1282.08 1502.08C1296.29 1563.56 1317.51 1626.64 1344.53 1685.11C1385.96 1773.71 1441.4 1850.25 1495.25 1899.28" stroke="#8584A3" stroke-miterlimit="10"/>
<path d="M-497.67 372.77C-415.408 321.136 -324.539 284.772 -230.667 274.927C-175.225 268.9 -118.382 272.918 -64.9412 288.589C-30.1147 298.836 3.31077 313.904 34.1342 333.995C129.807 396.678 199.06 501.954 271.515 583.523C303.139 619.084 330.76 653.44 369.189 677.951C402.615 699.247 442.044 711.502 483.476 717.931C540.72 726.771 603.567 725.767 660.411 724.16C691.835 723.155 721.857 722.753 750.679 723.758C810.325 725.767 860.963 730.79 912.202 745.255C987.059 766.551 1069.32 810.952 1135.97 884.485C1142.78 891.919 1149.38 899.553 1155.59 907.188C1223.64 989.56 1255.06 1062.09 1261.27 1132C1267.87 1207.75 1252.06 1292.33 1261.07 1398.41C1263.87 1430.15 1268.67 1463.5 1276.08 1497.26C1289.49 1559.74 1310.71 1623.83 1338.93 1682.49C1381.96 1771.7 1441.4 1847.64 1500.25 1894.65" stroke="#8C8BAC" stroke-miterlimit="10"/>
<path d="M-487.062 355.693C-405 305.265 -314.331 270.307 -221.06 261.668C-166.018 256.444 -109.775 260.663 -56.535 276.334C-21.9086 286.379 11.3166 301.247 41.9399 321.137C137.613 382.414 208.066 485.078 278.32 568.054C309.543 604.82 336.164 640.783 374.393 666.7C407.618 689.402 447.248 702.462 489.08 709.694C546.524 719.338 609.972 718.333 667.416 715.521C699.04 713.913 729.663 713.311 758.685 712.306C819.531 710.498 872.172 713.512 925.612 724.963C1003.67 741.84 1090.54 783.026 1157.79 857.362C1164.59 864.997 1171.2 872.631 1177.4 880.467C1245.06 964.246 1271.68 1043.2 1272.48 1116.74C1273.48 1196.9 1251.46 1283.89 1257.06 1391.78C1258.67 1424.13 1262.87 1458.08 1269.87 1492.44C1282.48 1555.92 1303.9 1620.82 1333.32 1679.88C1378.16 1769.69 1441.4 1845.03 1505.25 1890.03" stroke="#9391B4" stroke-miterlimit="10"/>
<path d="M-476.454 338.415C-394.792 288.991 -304.123 255.841 -211.252 248.207C-156.611 243.586 -100.768 248.408 -48.1282 263.878C-13.702 273.923 19.3231 288.589 49.7462 307.877C145.419 367.948 216.873 467.8 285.125 551.981C315.749 589.752 341.568 627.523 379.597 655.047C412.622 678.955 452.252 693.22 494.485 700.854C552.329 711.302 616.377 710.096 674.221 706.279C706.246 704.069 737.069 701.859 766.692 700.452C828.739 697.439 883.381 695.631 939.023 704.27C1020.48 716.726 1111.55 754.698 1179.61 829.838C1186.61 837.472 1193.02 845.308 1199.22 853.143C1266.47 938.128 1288.09 1023.51 1283.69 1101.06C1279.08 1185.65 1250.86 1274.85 1253.06 1384.95C1253.66 1418.1 1257.26 1452.66 1263.67 1487.41C1275.48 1552.11 1297.1 1617.6 1327.52 1677.07C1374.15 1767.28 1441 1842.22 1510.06 1885.21" stroke="#9A98BC" stroke-miterlimit="10"/>
<path d="M-465.646 321.337C-384.184 273.119 -293.715 241.376 -201.245 234.947C-147.004 230.929 -91.5613 236.152 -39.3216 251.622C-5.2957 261.668 27.5293 276.133 57.9524 295.018C153.425 353.885 226.28 450.924 292.331 536.31C322.354 575.286 347.373 614.664 385.001 643.595C417.826 668.91 457.657 684.179 500.089 692.416C558.333 703.667 622.782 702.462 681.227 697.439C713.451 694.626 744.875 691.412 774.898 688.8C838.146 683.174 894.789 678.152 952.633 683.777C1037.5 692.014 1132.77 726.37 1201.82 802.514C1208.83 810.149 1215.43 818.185 1221.64 826.221C1288.29 912.411 1305.1 1004.23 1295.69 1085.59C1285.29 1174.6 1250.86 1266.21 1249.66 1378.32C1249.26 1412.07 1252.06 1447.23 1258.07 1482.59C1269.07 1548.29 1290.89 1614.79 1322.51 1674.46C1370.75 1765.27 1441.61 1839.61 1515.66 1880.59" stroke="#A19EC5" stroke-miterlimit="10"/>
<path d="M-455.038 304.059C-373.776 256.846 -283.508 226.91 -191.638 221.486C-137.597 218.271 -82.9549 223.696 -30.9153 239.166C2.9104 249.211 35.5352 263.476 65.9583 281.959C161.431 339.62 235.287 433.846 299.336 520.639C328.758 560.62 352.977 601.806 390.405 632.344C423.03 659.065 463.061 675.339 505.693 683.978C564.338 695.832 629.387 694.827 688.232 688.599C720.857 685.183 752.481 680.964 783.104 677.147C847.553 669.111 905.998 660.673 966.243 663.284C1054.31 667.102 1154.19 698.242 1223.84 775.191C1230.84 783.026 1237.45 791.062 1243.65 799.099C1309.9 886.695 1321.71 984.738 1307.1 1069.92C1291.09 1163.15 1250.46 1257.17 1245.86 1371.29C1244.46 1405.84 1246.46 1441.4 1252.06 1477.37C1262.27 1544.07 1284.29 1611.37 1316.91 1671.45C1366.95 1762.86 1441.61 1836.59 1520.67 1875.57" stroke="#A8A5CD" stroke-miterlimit="10"/>
<path d="M-444.43 286.982C-363.568 240.773 -273.299 212.646 -181.83 208.226C-128.189 205.614 -73.9478 211.44 -22.5087 226.91C11.1169 236.956 43.3415 251.019 73.7646 268.9C169.037 325.155 244.294 416.769 306.141 504.767C334.963 545.954 358.381 588.747 395.61 620.692C428.034 648.819 468.065 665.896 511.298 675.339C570.342 687.996 635.792 686.791 695.438 679.558C728.463 675.54 760.287 670.316 791.311 665.293C856.961 654.645 917.407 642.792 979.854 642.591C1071.32 641.787 1175.4 669.914 1245.86 747.666C1253.06 755.502 1259.47 763.538 1265.67 771.976C1331.52 860.778 1338.33 965.25 1318.71 1054.25C1297.1 1151.89 1250.26 1248.33 1242.05 1364.46C1239.65 1399.62 1240.85 1435.98 1246.06 1472.34C1255.46 1540.25 1277.68 1608.16 1311.51 1668.63C1363.35 1760.65 1441.81 1833.78 1525.87 1870.75" stroke="#AFABD5" stroke-miterlimit="10"/>
<path d="M-433.822 269.905C-353.16 224.901 -263.092 198.18 -172.023 194.966C-118.782 192.957 -65.1413 199.386 -13.9023 214.655C19.323 224.7 51.5474 238.563 81.7704 256.042C177.043 311.091 253.301 399.893 313.147 489.096C341.568 531.287 363.985 575.889 400.813 609.441C433.038 638.974 473.268 657.056 516.701 667.102C576.147 680.563 642.197 679.357 702.243 670.919C735.468 666.298 767.893 660.07 799.316 653.842C866.167 640.582 928.615 625.514 993.264 622.299C1088.14 617.075 1196.62 641.988 1267.87 720.543C1275.08 728.379 1281.68 736.616 1287.69 745.054C1353.14 835.262 1355.14 945.963 1330.12 1038.98C1302.7 1140.84 1249.66 1239.69 1238.25 1358.03C1234.85 1393.79 1235.45 1430.76 1240.05 1467.72C1248.66 1536.64 1271.08 1605.55 1305.9 1666.02C1359.34 1758.64 1441.81 1831.17 1530.87 1866.13" stroke="#B6B2DE" stroke-miterlimit="10"/>
<path d="M-423.214 252.627C-342.953 208.628 -252.885 183.715 -162.416 181.505C-109.576 180.099 -56.3352 186.93 -5.69669 202.199C27.3284 212.244 59.3528 225.906 89.3756 242.983C184.448 296.827 261.907 382.816 319.751 473.425C347.372 516.822 369.188 563.031 405.816 597.989C437.841 628.728 478.071 648.015 521.905 658.463C581.55 672.727 648.201 671.522 708.847 661.878C742.472 656.654 775.097 649.422 807.122 642.189C875.173 626.317 939.422 608.034 1006.47 601.806C1104.55 592.364 1217.43 613.861 1289.49 693.22C1296.69 701.256 1303.3 709.493 1309.5 718.132C1374.35 809.546 1371.55 926.676 1341.33 1023.51C1308.3 1129.79 1248.86 1230.85 1234.25 1351.2C1229.64 1387.76 1229.64 1425.33 1233.85 1462.9C1241.65 1532.82 1264.27 1602.53 1300.3 1663.41C1355.54 1756.63 1441.8 1828.56 1535.88 1861.3" stroke="#BDB8E6" stroke-miterlimit="10"/>
<path d="M-412.605 235.549C-332.545 192.756 -242.676 169.249 -152.608 168.245C-100.168 167.642 -47.3275 174.674 2.91072 189.943C35.7357 199.989 67.3598 213.249 97.3826 229.924C192.455 282.562 270.915 365.939 326.757 457.554C353.778 501.955 374.794 549.972 411.021 586.336C442.846 618.482 483.276 638.573 527.31 649.823C587.355 664.892 654.607 663.485 715.653 652.837C749.479 647.011 782.504 638.974 815.129 630.335C884.381 612.053 950.632 590.354 1019.88 580.912C1121.36 567.049 1238.45 585.332 1311.31 665.494C1318.51 673.531 1325.32 681.969 1331.32 690.608C1395.77 783.428 1387.96 906.585 1352.74 1007.44C1314.11 1117.94 1248.46 1221.61 1230.24 1343.96C1224.64 1381.13 1223.84 1419.3 1227.64 1457.48C1234.65 1528.6 1257.47 1598.92 1294.49 1660.19C1351.54 1754.02 1441.61 1825.34 1540.68 1856.08" stroke="#C4BFEE" stroke-miterlimit="10"/>
<path d="M-401.797 218.271C-321.937 176.482 -232.268 154.784 -142.6 154.784C-90.5606 154.784 -38.3208 162.218 11.7173 177.487C44.3421 187.331 75.766 200.591 105.589 216.865C200.461 268.298 279.921 348.862 333.963 441.883C360.383 487.489 380.598 536.913 416.625 575.085C448.25 608.637 488.88 629.733 533.314 641.586C593.76 657.458 661.412 656.052 723.259 644.399C757.485 637.97 790.71 628.929 823.735 619.084C893.989 597.989 962.441 573.277 1033.9 560.821C1138.77 542.739 1260.27 557.606 1333.92 638.573C1341.33 646.609 1347.93 655.248 1353.94 663.887C1417.99 757.912 1405.18 887.499 1364.75 992.172C1320.31 1106.69 1248.46 1212.97 1227.04 1337.53C1220.44 1375.31 1219.04 1414.28 1222.24 1452.86C1228.44 1524.98 1251.46 1596.1 1289.69 1657.78C1348.33 1752.21 1442.41 1822.93 1546.49 1851.66" stroke="#CBC5F7" stroke-miterlimit="10"/>
<path d="M-391.19 201.194C-265.494 137.104 -114.78 123.844 20.123 165.231C155.026 206.618 272.315 302.452 340.567 426.212C366.386 473.024 385.801 524.054 421.628 563.634C495.685 645.805 621.581 657.659 729.863 635.358C837.945 613.057 938.822 562.629 1047.1 540.127C1155.19 517.625 1281.08 529.278 1355.54 611.048C1442.21 706.48 1425.79 857.764 1375.95 976.501C1325.92 1095.44 1247.86 1203.93 1222.84 1330.5C1201.02 1441 1223.24 1559.74 1283.68 1654.77C1344.13 1749.8 1442 1819.92 1551.09 1846.64" stroke="#D2CCFF" stroke-miterlimit="10"/>
<path d="M-357.764 193.559C-232.869 131.278 -83.9559 119.625 48.9453 161.816C181.846 204.007 297.735 299.037 363.985 422.194C389.805 470.211 407.818 523.452 442.445 564.437C512.698 647.613 634.391 661.677 739.271 643.394C843.95 625.112 942.825 579.505 1049.91 559.816C1158.39 539.725 1284.89 549.168 1361.34 628.728C1449.81 721.347 1438.4 871.627 1390.37 991.368C1342.33 1111.11 1262.27 1220.2 1234.45 1343.56C1210.43 1450.24 1230.64 1564.36 1286.69 1656.38C1342.73 1748.39 1435 1817.71 1540.08 1845.43" stroke="#CDC9FE" stroke-miterlimit="10"/>
<path d="M-324.139 186.126C-200.244 125.853 -52.9323 115.607 78.1675 158.4C209.267 201.194 323.554 295.822 387.603 418.376C413.423 467.8 429.835 522.849 463.26 565.241C529.511 649.221 647.201 665.695 748.478 651.431C849.955 637.367 946.828 596.382 1052.71 579.304C1161.59 561.825 1288.89 568.656 1367.35 646.207C1457.82 735.812 1451.01 885.489 1405.18 1005.83C1359.34 1126.18 1277.28 1236.08 1246.46 1356.02C1220.04 1458.68 1238.45 1568.58 1290.09 1657.58C1341.93 1746.58 1428.39 1815.09 1529.47 1843.82" stroke="#C7C6FE" stroke-miterlimit="10"/>
<path d="M-290.713 178.491C-167.619 120.228 -22.1085 111.589 107.19 154.784C236.488 197.979 348.974 292.407 411.021 414.358C436.841 465.188 451.652 522.045 484.077 566.044C546.524 650.828 659.81 669.512 757.885 659.467C855.96 649.422 950.832 613.057 1055.71 598.793C1164.79 583.925 1293.09 588.144 1373.35 663.686C1465.82 750.479 1463.62 899.352 1419.99 1020.3C1376.36 1141.25 1292.09 1251.75 1258.27 1368.68C1229.84 1467.12 1245.86 1572.8 1293.29 1658.99C1340.73 1744.98 1421.59 1812.48 1518.66 1842.42" stroke="#C2C3FD" stroke-miterlimit="10"/>
<path d="M-257.088 170.857C-134.995 114.401 9.11469 107.37 136.412 151.369C263.708 195.368 374.593 289.393 434.638 410.541C460.458 462.777 473.668 521.242 505.092 567.049C563.737 652.435 672.82 673.732 767.492 667.905C862.164 662.079 955.034 630.335 1058.91 618.683C1168.6 606.226 1297.29 608.235 1379.76 681.567C1474.23 765.547 1476.63 913.416 1435.2 1035.17C1393.57 1156.92 1307.5 1267.62 1270.67 1381.53C1240.05 1475.96 1254.06 1577.42 1297.09 1660.6C1340.13 1743.77 1415.38 1810.27 1508.46 1841.41" stroke="#BDC0FD" stroke-miterlimit="10"/>
<path d="M-223.662 163.423C-102.37 108.977 39.9385 103.351 165.234 147.953C290.529 192.555 399.812 286.178 457.856 406.523C483.676 460.165 495.485 520.438 525.708 567.652C580.55 653.641 685.43 677.549 776.699 675.741C867.968 673.932 959.038 647.212 1061.72 637.97C1171.8 628.125 1301.1 627.723 1385.56 698.845C1481.84 780.012 1489.24 927.078 1449.61 1049.43C1410.18 1171.78 1322.11 1283.09 1282.08 1393.99C1249.46 1484.4 1261.27 1581.44 1299.9 1661.6C1338.53 1741.76 1408.18 1807.46 1497.05 1839.61" stroke="#B8BDFC" stroke-miterlimit="10"/>
<path d="M-190.037 155.789C-69.7451 103.351 70.962 99.1322 194.456 144.538C317.95 189.943 425.231 283.165 481.474 402.705C507.294 457.754 517.502 519.634 546.524 568.656C597.763 655.047 698.039 681.567 786.106 683.978C873.973 686.389 963.041 664.289 1064.72 657.659C1175.2 650.627 1305.1 647.413 1391.77 716.525C1490.04 794.88 1502.05 941.141 1464.62 1064.3C1427.19 1187.46 1337.53 1298.96 1294.29 1406.85C1259.87 1493.04 1269.07 1586.06 1303.5 1663.21C1337.93 1740.36 1401.77 1805.05 1486.64 1838.4" stroke="#B2BAFC" stroke-miterlimit="10"/>
<path d="M-156.611 148.154C-37.1199 97.726 101.786 94.9133 223.478 140.921C345.171 186.93 450.451 279.95 504.892 398.687C530.712 455.143 539.519 518.63 567.34 569.259C614.976 655.851 710.849 685.384 795.313 691.813C879.978 698.242 967.044 681.165 1067.52 677.147C1178.4 672.727 1309.1 667.102 1397.57 734.004C1497.65 809.546 1514.46 954.803 1479.23 1078.76C1444.01 1202.72 1352.54 1314.23 1306.1 1419.51C1269.87 1501.48 1276.68 1590.28 1306.7 1664.61C1336.73 1738.75 1394.77 1802.64 1475.83 1836.99" stroke="#ADB6FB" stroke-miterlimit="10"/>
<path d="M-122.986 140.72C-4.49569 92.1004 132.809 90.895 252.5 137.506C372.191 184.117 475.67 276.937 528.31 394.87C554.129 452.732 561.335 517.625 588.155 570.263C632.389 657.056 723.658 689.603 804.72 700.051C885.982 710.699 971.247 692.818 1070.52 696.836C1181.81 701.256 1313.11 686.991 1403.78 751.684C1505.65 824.413 1527.27 968.867 1494.04 1093.43C1460.82 1217.99 1367.95 1329.9 1317.91 1432.16C1279.88 1510.11 1284.28 1594.7 1309.9 1665.82C1335.52 1737.14 1387.96 1799.83 1465.02 1835.39" stroke="#A8B3FB" stroke-miterlimit="10"/>
<path d="M-89.5601 133.086C28.1295 86.4751 163.833 86.676 281.522 134.09C399.412 181.304 500.889 273.923 551.728 390.852C577.548 450.12 583.352 516.621 608.971 570.866C649.802 657.86 736.268 693.22 814.127 708.087C891.987 722.753 975.65 709.493 1073.52 716.324C1185.21 723.959 1317.11 706.681 1409.78 769.163C1513.66 839.08 1539.88 982.73 1508.86 1107.9C1477.83 1233.06 1383.36 1345.17 1329.92 1444.62C1290.29 1518.35 1291.89 1598.72 1313.31 1667.03C1334.72 1735.33 1381.36 1797.21 1454.41 1833.78" stroke="#A3B0FA" stroke-miterlimit="10"/>
<path d="M-55.9346 125.451C60.9544 80.8495 194.856 82.4568 310.744 130.474C426.633 178.491 526.108 270.708 575.346 386.834C600.965 447.508 605.569 515.415 629.787 571.67C667.216 658.663 749.078 697.238 823.535 716.123C897.991 735.009 979.653 732.598 1076.53 735.812C1189.01 739.63 1321.11 726.169 1415.99 786.642C1521.67 853.746 1552.89 996.592 1523.87 1122.36C1494.85 1248.13 1399.17 1360.44 1341.93 1457.28C1300.9 1526.79 1299.7 1603.14 1316.71 1668.43C1333.72 1733.73 1374.75 1794.8 1443.81 1832.37" stroke="#9DADFA" stroke-miterlimit="10"/>
<path d="M-22.5088 118.018C93.3794 75.425 225.68 78.6396 339.767 127.059C453.854 175.478 551.328 267.695 598.764 383.017C624.383 445.097 627.786 514.411 650.603 572.674C684.829 659.869 761.688 701.457 832.942 724.361C903.996 747.264 983.657 749.876 1079.33 755.502C1192.22 762.132 1324.92 746.059 1421.79 804.121C1529.27 868.613 1565.3 1010.25 1538.48 1136.83C1511.66 1263.4 1414.58 1375.71 1353.74 1469.73C1311.31 1535.23 1307.3 1607.15 1319.91 1669.44C1332.52 1731.72 1367.95 1791.79 1433 1830.56" stroke="#98AAF9" stroke-miterlimit="10"/>
<path d="M11.1162 110.383C126.204 69.5988 256.703 74.4206 368.788 123.643C480.874 172.866 576.346 264.882 622.181 379.199C647.601 442.686 649.802 513.406 671.419 573.478C702.642 660.472 774.497 705.274 842.149 732.397C909.8 759.52 987.659 767.154 1082.13 775.191C1195.62 784.834 1328.72 765.949 1427.59 821.802C1536.88 883.481 1577.71 1024.32 1552.89 1151.69C1528.07 1279.07 1430.2 1391.38 1365.15 1482.79C1321.71 1544.07 1314.31 1611.98 1322.71 1671.24C1331.12 1730.51 1360.74 1789.78 1421.79 1829.56" stroke="#93A7F9" stroke-miterlimit="10"/>
<path d="M44.542 102.95C158.629 64.1741 287.527 70.4023 397.811 120.228C508.095 170.053 601.366 261.868 645.399 375.382C670.818 440.476 671.819 512.402 692.035 574.483C720.256 661.476 787.107 709.493 851.356 740.634C915.805 771.775 991.663 784.633 1084.93 794.88C1198.82 807.336 1332.32 785.839 1433.6 839.481C1544.68 898.348 1590.32 1038.38 1567.7 1166.36C1545.08 1294.34 1446.21 1406.85 1377.16 1495.45C1332.52 1552.71 1322.11 1616.2 1326.12 1672.65C1330.12 1729.11 1354.14 1787.37 1411.18 1828.15" stroke="#8EA4F9" stroke-miterlimit="10"/>
<path d="M78.1675 95.315C191.454 58.5487 318.751 66.1832 427.033 116.611C535.315 167.039 626.585 258.855 669.017 371.163C694.236 437.664 694.436 510.995 712.85 574.884C738.07 661.878 799.716 713.11 860.763 748.47C921.809 783.83 995.866 801.711 1087.94 814.167C1202.42 829.637 1336.32 805.327 1439.6 856.76C1552.49 913.014 1603.13 1051.84 1582.51 1180.62C1561.9 1309.41 1462.42 1422.12 1389.17 1507.91C1343.73 1561.15 1329.92 1620.41 1329.52 1673.65C1329.12 1727.1 1347.53 1784.36 1400.57 1826.55" stroke="#88A1F8" stroke-miterlimit="10"/>
<path d="M111.593 87.6805C223.879 52.7224 349.574 61.9642 456.055 113.196C562.536 164.428 651.404 255.841 692.435 367.346C717.454 435.253 716.654 509.79 733.667 575.889C756.084 662.682 812.527 717.128 870.17 756.707C927.814 796.286 1000.07 819.19 1090.94 833.856C1206.03 852.34 1340.33 825.418 1445.81 874.44C1560.5 927.881 1615.94 1065.91 1597.32 1195.29C1578.91 1324.68 1478.83 1437.79 1400.97 1520.56C1354.54 1569.99 1337.53 1624.63 1332.72 1675.06C1327.92 1725.49 1340.73 1781.94 1389.77 1825.14" stroke="#839EF8" stroke-miterlimit="10"/>
<path d="M145.218 80.2468C256.703 47.2977 380.597 57.9459 485.077 109.78C589.556 161.615 676.422 253.028 715.852 363.528C740.671 433.043 739.07 508.785 754.482 576.893C774.097 663.686 825.336 721.347 879.577 764.944C933.818 808.541 1004.27 836.869 1093.94 853.545C1209.43 875.243 1344.33 845.308 1451.81 892.119C1568.3 942.949 1628.55 1079.97 1612.13 1209.96C1595.72 1340.15 1495.25 1453.66 1412.98 1533.42C1365.95 1579.03 1345.13 1629.05 1336.12 1676.67C1327.12 1724.08 1334.12 1779.53 1378.96 1823.93" stroke="#7E9BF7" stroke-miterlimit="10"/>
<path d="M178.644 72.6123C289.128 41.6724 411.421 53.7269 514.099 106.164C616.777 158.601 701.242 249.814 739.271 359.51C763.889 430.431 761.488 507.58 775.298 577.496C792.111 664.289 837.946 725.164 888.784 772.78C939.623 820.596 1008.08 853.947 1096.74 872.832C1212.63 897.544 1348.13 864.796 1457.82 909.398C1576.11 957.415 1641.16 1093.43 1626.95 1224.42C1612.74 1355.42 1511.86 1469.53 1424.79 1545.88C1376.96 1587.67 1352.74 1633.27 1339.33 1677.67C1325.92 1722.07 1327.32 1776.72 1368.15 1822.13" stroke="#7898F7" stroke-miterlimit="10"/>
<path d="M212.07 64.9778C321.753 36.0469 442.245 49.5078 543.122 102.749C643.999 155.989 726.261 247.001 762.689 355.492C787.107 428.02 784.105 506.174 795.914 578.3C810.125 664.892 850.556 728.982 897.992 780.816C945.428 832.651 1012.08 871.426 1099.55 892.521C1216.03 920.448 1351.94 884.686 1463.62 927.078C1583.71 972.483 1653.77 1107.49 1641.56 1239.09C1629.35 1370.68 1528.47 1485.81 1436.6 1558.53C1388.36 1596.71 1360.34 1637.49 1342.53 1679.08C1324.92 1720.67 1320.51 1774.31 1357.34 1820.72" stroke="#7395F6" stroke-miterlimit="10"/>
<path d="M245.695 57.5441C354.578 30.4214 473.269 45.6905 572.344 99.3332C671.219 152.976 751.28 244.188 786.307 351.675C810.525 425.609 806.922 505.169 816.93 579.104C828.539 665.695 863.365 733 907.599 789.053C951.833 845.107 1016.48 889.106 1102.75 912.21C1219.64 943.351 1355.94 904.777 1470.03 944.758C1591.92 987.551 1666.78 1121.56 1656.57 1253.76C1646.56 1385.95 1545.68 1502.28 1448.81 1571.39C1399.97 1606.15 1368.15 1642.11 1346.13 1680.69C1324.12 1719.26 1314.11 1771.9 1346.93 1819.51" stroke="#6E92F6" stroke-miterlimit="10"/>
<path d="M279.121 49.9096C387.203 24.796 504.292 41.4714 601.366 95.7168C698.44 150.163 776.099 241.175 809.725 347.656C833.543 423.198 829.74 503.964 837.746 579.907C846.953 666.499 876.175 737.018 917.006 797.09C957.837 857.161 1020.49 906.585 1105.55 931.699C1222.84 966.255 1359.74 924.466 1475.83 962.237C1599.53 1002.42 1679.19 1135.42 1671.18 1268.22C1663.17 1401.02 1562.5 1518.96 1460.42 1583.85C1410.98 1615.19 1375.56 1646.13 1349.14 1681.69C1322.72 1717.25 1307.1 1769.09 1335.93 1817.71" stroke="#698EF5" stroke-miterlimit="10"/>
<path d="M312.746 42.2751C419.828 19.1706 535.315 37.2524 630.388 92.3014C725.46 147.35 800.918 238.161 833.142 343.839C856.76 420.787 852.357 502.959 858.561 580.711C865.367 667.302 888.985 740.835 926.413 805.126C963.842 869.417 1024.49 924.265 1108.55 951.187C1226.24 988.957 1363.75 944.356 1482.04 979.716C1607.53 1017.29 1692 1149.08 1686.19 1282.69C1680.39 1416.29 1579.91 1536.03 1472.63 1596.51C1422.59 1624.63 1383.56 1650.55 1352.74 1683.1C1322.11 1715.64 1300.7 1766.68 1325.52 1816.3" stroke="#638BF5" stroke-miterlimit="10"/>
<path d="M346.171 34.8415C452.252 13.746 566.139 33.2342 659.41 88.8859C752.681 144.538 825.536 235.348 856.56 339.821C879.777 418.376 875.374 501.754 879.177 581.514C883.58 668.106 901.594 744.853 935.62 813.162C969.646 881.471 1028.49 941.744 1111.35 970.675C1229.24 1011.86 1367.55 964.045 1487.84 997.195C1615.14 1032.15 1704.4 1162.94 1700.6 1297.15C1696.8 1431.56 1596.52 1553.31 1484.04 1608.96C1433.4 1634.08 1390.57 1654.57 1355.54 1684.3C1320.51 1714.04 1293.29 1763.86 1314.31 1814.69" stroke="#5E88F4" stroke-miterlimit="10"/>
<path d="M379.797 27.2069C485.077 7.91968 597.163 29.0151 688.432 85.2696C779.702 141.524 850.355 232.335 879.978 335.803C902.795 415.765 898.192 500.548 899.993 582.318C901.995 669.111 914.204 748.871 944.827 821.199C975.451 893.727 1032.29 959.424 1114.16 990.364C1232.45 1034.97 1371.15 984.136 1493.65 1014.87C1622.74 1047.22 1717.01 1177.01 1715.21 1312.02C1713.41 1447.03 1613.34 1571.39 1495.85 1622.02C1444.61 1644.12 1398.17 1659.39 1358.74 1685.91C1319.31 1712.63 1286.49 1761.65 1303.5 1813.49" stroke="#5985F4" stroke-miterlimit="10"/>
<path d="M413.223 19.5723C517.502 2.29417 627.986 24.796 717.454 81.8541C806.922 138.711 875.174 229.321 903.396 331.986C925.813 413.555 921.209 499.544 920.809 583.122C920.409 669.914 927.014 752.689 954.234 829.436C981.455 905.982 1036.3 977.104 1117.16 1010.05C1235.65 1058.27 1375.15 1004.23 1499.85 1032.55C1630.75 1062.29 1729.82 1190.87 1730.22 1326.69C1730.63 1462.5 1630.75 1589.27 1508.06 1634.48C1456.22 1653.56 1406.18 1663.41 1362.34 1687.12C1318.51 1710.82 1280.08 1758.84 1293.09 1812.08" stroke="#5482F3" stroke-miterlimit="10"/>
<path d="M446.848 12.1388C550.327 -3.13031 659.21 20.7778 746.676 78.4387C834.143 136.1 899.993 226.509 927.014 328.168C949.03 411.144 944.427 498.74 941.825 584.126C939.223 671.12 939.823 756.908 963.841 837.673C987.86 918.439 1040.5 994.985 1120.36 1029.74C1239.05 1081.38 1379.36 1024.32 1506.05 1050.23C1638.75 1077.56 1742.63 1204.93 1745.24 1341.35C1747.84 1477.77 1647.76 1607.96 1520.06 1647.54C1467.42 1663.81 1413.78 1668.23 1365.75 1688.92C1317.71 1709.62 1273.48 1756.83 1282.48 1811.08" stroke="#4E7FF3" stroke-miterlimit="10"/>
<path d="M480.273 4.5042C582.751 -8.95669 690.033 16.7596 775.698 74.8223C861.363 133.086 924.612 223.495 950.431 323.949C972.048 408.532 967.444 497.334 962.44 584.528C957.437 671.723 952.433 760.524 973.048 845.308C993.664 930.091 1044.1 1012.26 1123.16 1048.83C1242.05 1104.08 1383.16 1043.6 1512.06 1067.31C1646.56 1091.82 1755.24 1218.4 1759.85 1355.42C1764.45 1492.44 1664.37 1626.04 1531.87 1659.59C1478.23 1673.25 1421.39 1671.85 1368.95 1689.53C1316.51 1707.21 1266.67 1753.62 1271.68 1808.87" stroke="#497CF2" stroke-miterlimit="10"/>
</svg>
