<svg width="500" height="500" viewBox="0 0 500 500" fill="none" xmlns="http://www.w3.org/2000/svg">
<path d="M37.9751 249.998C37.9751 302.511 58.8357 352.873 95.968 390.005C133.1 427.137 183.462 447.998 235.975 447.998C288.488 447.998 338.85 427.137 375.982 390.005C413.114 352.873 433.975 302.511 433.975 249.998C433.975 197.485 413.114 147.123 375.982 109.991C338.85 72.8587 288.488 51.998 235.975 51.998C183.462 51.998 133.1 72.8587 95.968 109.991C58.8357 147.123 37.9751 197.485 37.9751 249.998Z" fill="#DAEDF7" stroke="#DAEDF7" stroke-width="1.90678" stroke-miterlimit="10"/>
<path d="M147.495 288.86H196.138V316.659H147.495V288.86Z" fill="#ADC4D9"/>
<path d="M230.889 337.508C230.889 334.77 230.351 332.059 229.303 329.529C228.256 327 226.721 324.701 224.785 322.765C222.85 320.829 220.551 319.293 218.022 318.246C215.493 317.198 212.782 316.658 210.044 316.658H133.601C128.072 316.658 122.769 318.855 118.859 322.765C114.949 326.675 112.752 331.978 112.752 337.508H230.889Z" fill="#DAEDF7" stroke="#45413C" stroke-width="1.90678" stroke-linecap="round" stroke-linejoin="round"/>
<path d="M147.495 288.86H196.138V299.285H147.495V288.86Z" fill="#ADC4D9"/>
<path d="M147.495 288.86H196.138V316.659H147.495V288.86Z" stroke="#45413C" stroke-width="1.90678" stroke-linecap="round" stroke-linejoin="round"/>
<path d="M300.38 288.861H43.2571C40.5194 288.861 37.8083 288.323 35.2788 287.276C32.7492 286.228 30.4508 284.693 28.5147 282.757C26.5786 280.822 25.0427 278.524 23.9949 275.994C22.947 273.465 22.4077 270.754 22.4077 268.016V254.117H321.229V268.016C321.229 270.754 320.69 273.465 319.642 275.994C318.594 278.524 317.059 280.822 315.122 282.757C313.186 284.693 310.888 286.228 308.358 287.276C305.829 288.323 303.118 288.861 300.38 288.861Z" fill="#F8F8F8" stroke="#45413C" stroke-width="1.90678" stroke-linecap="round" stroke-linejoin="round"/>
<path d="M175.294 271.491C175.294 272.177 175.091 272.847 174.71 273.416C174.33 273.986 173.788 274.43 173.155 274.693C172.522 274.955 171.825 275.024 171.153 274.89C170.481 274.756 169.864 274.426 169.379 273.942C168.895 273.457 168.565 272.84 168.431 272.167C168.297 271.495 168.366 270.799 168.628 270.165C168.89 269.532 169.334 268.991 169.904 268.61C170.474 268.23 171.144 268.026 171.829 268.026C172.748 268.026 173.63 268.391 174.279 269.041C174.929 269.691 175.294 270.572 175.294 271.491Z" fill="#45413C" stroke="#45413C" stroke-width="1.90678" stroke-miterlimit="10"/>
<path d="M50.2069 73.4294H293.43C300.803 73.4294 307.874 76.3583 313.087 81.5716C318.301 86.785 321.229 93.8558 321.229 101.229V254.114H22.4077V101.229C22.4077 97.578 23.1268 93.9631 24.5238 90.5904C25.9208 87.2176 27.9685 84.153 30.5499 81.5716C35.7633 76.3583 42.8341 73.4294 50.2069 73.4294Z" fill="#45413C"/>
<path d="M50.2069 73.4294H293.43C300.803 73.4294 307.874 76.3583 313.087 81.5716C318.301 86.785 321.229 93.8558 321.229 101.229V254.114H22.4077V101.229C22.4077 97.578 23.1268 93.9631 24.5238 90.5904C25.9208 87.2176 27.9685 84.153 30.5499 81.5716C35.7633 76.3583 42.8341 73.4294 50.2069 73.4294Z" stroke="#45413C" stroke-width="1.90678" stroke-linecap="round" stroke-linejoin="round"/>
<path d="M50.2085 87.3308V142.924M50.2085 156.824V240.217" stroke="#87898C" stroke-width="1.90678" stroke-linecap="round" stroke-linejoin="round"/>
<path d="M223.94 108.18C225.783 108.18 227.551 107.448 228.854 106.145C230.158 104.841 230.89 103.074 230.89 101.23C230.89 99.3872 230.158 97.6195 228.854 96.3162C227.551 95.0128 225.783 94.2806 223.94 94.2806H71.0543C69.2111 94.2806 67.4434 95.0128 66.14 96.3162C64.8367 97.6195 64.1045 99.3872 64.1045 101.23C64.1045 103.074 64.8367 104.841 66.14 106.145C67.4434 107.448 69.2111 108.18 71.0543 108.18H223.94Z" fill="#00DFEB" stroke="#45413C" stroke-width="1.90678" stroke-linecap="round" stroke-linejoin="round"/>
<path d="M168.327 177.673C170.17 177.673 171.938 176.941 173.241 175.638C174.544 174.334 175.277 172.567 175.277 170.723C175.277 168.88 174.544 167.112 173.241 165.809C171.938 164.506 170.17 163.774 168.327 163.774H71.0543C69.2111 163.774 67.4434 164.506 66.14 165.809C64.8367 167.112 64.1045 168.88 64.1045 170.723C64.1045 172.567 64.8367 174.334 66.14 175.638C67.4434 176.941 69.2111 177.673 71.0543 177.673H168.327Z" fill="#FFE500" stroke="#45413C" stroke-width="1.90678" stroke-linecap="round" stroke-linejoin="round"/>
<path d="M133.602 233.268C135.446 233.268 137.213 232.535 138.517 231.232C139.82 229.929 140.552 228.161 140.552 226.318C140.552 224.475 139.82 222.707 138.517 221.404C137.213 220.1 135.446 219.368 133.602 219.368H71.0543C69.2111 219.368 67.4434 220.1 66.14 221.404C64.8367 222.707 64.1045 224.475 64.1045 226.318C64.1045 228.161 64.8367 229.929 66.14 231.232C67.4434 232.535 69.2111 233.268 71.0543 233.268H133.602Z" fill="#FF6242" stroke="#45413C" stroke-width="1.90678" stroke-linecap="round" stroke-linejoin="round"/>
<path d="M196.147 205.449C197.989 205.449 199.756 204.717 201.059 203.414C202.362 202.111 203.094 200.344 203.094 198.502C203.094 196.659 202.362 194.892 201.059 193.589C199.756 192.286 197.989 191.554 196.147 191.554H71.0552C69.2127 191.554 67.4456 192.286 66.1427 193.589C64.8399 194.892 64.1079 196.659 64.1079 198.502C64.1079 200.344 64.8399 202.111 66.1427 203.414C67.4456 204.717 69.2127 205.449 71.0552 205.449H196.147Z" fill="#FF8A14" stroke="#45413C" stroke-width="1.90678" stroke-linecap="round" stroke-linejoin="round"/>
<path d="M105.804 135.975C107.647 135.975 109.414 135.243 110.717 133.94C112.02 132.638 112.752 130.87 112.752 129.028C112.752 127.185 112.02 125.418 110.717 124.115C109.414 122.813 107.647 122.081 105.804 122.081H71.0552C69.2127 122.081 67.4456 122.813 66.1427 124.115C64.8399 125.418 64.1079 127.185 64.1079 129.028C64.1079 130.87 64.8399 132.638 66.1427 133.94C67.4456 135.243 69.2127 135.975 71.0552 135.975H105.804Z" fill="#00DBA8" stroke="#45413C" stroke-width="1.90678" stroke-linecap="round" stroke-linejoin="round"/>
<path d="M196.145 135.975C197.987 135.975 199.755 135.243 201.057 133.94C202.36 132.638 203.092 130.87 203.092 129.028C203.092 127.185 202.36 125.418 201.057 124.115C199.755 122.813 197.987 122.081 196.145 122.081H133.602C131.759 122.081 129.992 122.813 128.689 124.115C127.386 125.418 126.654 127.185 126.654 129.028C126.654 130.87 127.386 132.638 128.689 133.94C129.992 135.243 131.759 135.975 133.602 135.975H196.145Z" fill="#6DD627" stroke="#45413C" stroke-width="1.90678" stroke-linecap="round" stroke-linejoin="round"/>
<path d="M415.049 191.588H296.907L290.819 246.414C290.708 247.386 290.804 248.37 291.1 249.302C291.397 250.234 291.887 251.093 292.54 251.822C293.192 252.551 293.991 253.133 294.885 253.531C295.778 253.929 296.746 254.134 297.724 254.131H414.232C415.212 254.137 416.183 253.935 417.079 253.539C417.976 253.143 418.778 252.561 419.433 251.831C420.088 251.102 420.581 250.242 420.879 249.308C421.177 248.374 421.274 247.388 421.162 246.414L415.049 191.588Z" fill="#87898C"/>
<path d="M416.978 208.942L415.047 191.572H296.906L294.975 208.942H416.978Z" fill="#45413C"/>
<path d="M415.049 191.588H296.907L290.819 246.414C290.708 247.386 290.804 248.37 291.1 249.302C291.397 250.234 291.887 251.093 292.54 251.822C293.192 252.551 293.991 253.133 294.885 253.531C295.778 253.929 296.746 254.134 297.724 254.131H414.232C415.212 254.137 416.183 253.935 417.079 253.539C417.976 253.143 418.778 252.561 419.433 251.831C420.088 251.102 420.581 250.242 420.879 249.308C421.177 248.374 421.274 247.388 421.162 246.414L415.049 191.588Z" stroke="#45413C" stroke-width="1.90678" stroke-linecap="round" stroke-linejoin="round"/>
<path d="M470.642 191.588C472.485 191.588 474.253 190.856 475.556 189.552C476.859 188.249 477.591 186.481 477.591 184.638C477.591 182.795 476.859 181.027 475.556 179.724C474.253 178.42 472.485 177.688 470.642 177.688H241.313C239.47 177.688 237.702 178.42 236.399 179.724C235.096 181.027 234.363 182.795 234.363 184.638C234.363 186.481 235.096 188.249 236.399 189.552C237.702 190.856 239.47 191.588 241.313 191.588H470.642ZM373.349 174.198C373.349 168.442 365.573 163.774 355.98 163.774C346.387 163.774 338.605 168.442 338.605 174.198V177.663H373.349V174.198Z" fill="#87898C" stroke="#45413C" stroke-width="1.90678" stroke-linecap="round" stroke-linejoin="round"/>
<path d="M435.892 215.893C435.892 218.658 436.99 221.31 438.945 223.265C440.9 225.22 443.551 226.318 446.316 226.318C449.081 226.318 451.733 225.22 453.688 223.265C455.643 221.31 456.741 218.658 456.741 215.893C456.741 213.128 455.643 210.477 453.688 208.522C451.733 206.567 449.081 205.469 446.316 205.469C443.551 205.469 440.9 206.567 438.945 208.522C436.99 210.477 435.892 213.128 435.892 215.893Z" fill="#FF6242" stroke="#45413C" stroke-width="1.90678" stroke-linecap="round" stroke-linejoin="round"/>
<path d="M456.74 236.744C456.771 235.357 456.524 233.977 456.013 232.686C455.503 231.395 454.74 230.219 453.769 229.227C452.799 228.234 451.64 227.446 450.36 226.908C449.08 226.37 447.706 226.093 446.318 226.093C444.93 226.093 443.556 226.37 442.276 226.908C440.997 227.446 439.838 228.234 438.867 229.227C437.896 230.219 437.133 231.395 436.623 232.686C436.113 233.977 435.866 235.357 435.896 236.744V261.069L456.74 274.968V236.744Z" fill="#FF6242" stroke="#45413C" stroke-width="1.90678" stroke-linecap="round" stroke-linejoin="round"/>
<path d="M446.317 205.469V170.725" stroke="#45413C" stroke-width="1.90678" stroke-linecap="round" stroke-linejoin="round"/>
<path opacity="0.15" d="M289.956 375.726C207.44 375.726 140.545 380.394 140.545 386.151C140.545 388.181 148.96 390.067 163.315 391.665C145.307 393.566 133.581 396.615 133.581 400.051C133.581 405.808 166.251 410.475 206.549 410.475C246.846 410.475 279.516 405.808 279.516 400.051C279.516 398.813 277.918 397.63 275.141 396.526C280.011 396.556 284.943 396.572 289.936 396.576C372.453 396.576 439.352 391.908 439.352 386.151C439.352 380.394 372.473 375.726 289.956 375.726Z" fill="#45413C"/>
<path d="M235.235 330.558C232.929 330.52 230.638 330.94 228.496 331.796C226.355 332.651 224.405 333.925 222.76 335.542C221.116 337.159 219.81 339.087 218.918 341.214C218.026 343.341 217.567 345.624 217.567 347.93C217.567 350.237 218.026 352.52 218.918 354.647C219.81 356.774 221.116 358.702 222.76 360.319C224.405 361.936 226.355 363.21 228.496 364.065C230.638 364.921 232.929 365.341 235.235 365.302H370.746C372.589 365.302 374.357 366.035 375.66 367.338C376.964 368.641 377.696 370.409 377.696 372.252C377.696 374.095 376.964 375.863 375.66 377.167C374.357 378.47 372.589 379.202 370.746 379.202H235.235C231.095 379.254 226.986 378.484 223.147 376.936C219.307 375.387 215.813 373.092 212.867 370.183C209.921 367.274 207.582 363.809 205.986 359.989C204.389 356.169 203.567 352.071 203.567 347.93C203.567 343.79 204.389 339.692 205.986 335.872C207.582 332.052 209.921 328.587 212.867 325.678C215.813 322.769 219.307 320.474 223.147 318.925C226.986 317.377 231.095 316.607 235.235 316.659H370.746C372.589 316.659 374.357 317.391 375.66 318.694C376.964 319.998 377.696 321.765 377.696 323.609C377.696 325.452 376.964 327.22 375.66 328.523C374.357 329.826 372.589 330.558 370.746 330.558H235.235Z" fill="#6DD627" stroke="#45413C" stroke-width="1.90678" stroke-linecap="round" stroke-linejoin="round"/>
<path d="M370.748 365.303V330.559H235.237C232.931 330.52 230.64 330.94 228.498 331.796C226.356 332.652 224.406 333.925 222.762 335.542C221.117 337.159 219.811 339.087 218.92 341.214C218.028 343.341 217.569 345.625 217.569 347.931C217.569 350.237 218.028 352.52 218.92 354.647C219.811 356.774 221.117 358.703 222.762 360.32C224.406 361.937 226.356 363.21 228.498 364.066C230.64 364.921 232.931 365.342 235.237 365.303H370.748Z" fill="#FFF5E3" stroke="#45413C" stroke-width="1.90678" stroke-linecap="round" stroke-linejoin="round"/>
<path d="M370.746 344.459H322.102M308.203 344.459H294.303" stroke="#45413C" stroke-width="1.90678" stroke-linecap="round" stroke-linejoin="round"/>
<path d="M161.395 351.409C158.631 351.367 155.885 351.875 153.318 352.903C150.752 353.932 148.415 355.46 146.445 357.4C144.475 359.341 142.911 361.653 141.843 364.204C140.775 366.754 140.225 369.491 140.225 372.256C140.225 375.021 140.775 377.759 141.843 380.309C142.911 382.86 144.475 385.172 146.445 387.112C148.415 389.052 150.752 390.581 153.318 391.61C155.885 392.638 158.631 393.146 161.395 393.103H258.688C260.525 393.103 262.288 392.373 263.588 391.074C264.887 389.774 265.618 388.011 265.618 386.173V379.194H161.395C159.552 379.194 157.784 378.462 156.481 377.158C155.178 375.855 154.445 374.087 154.445 372.244C154.445 370.401 155.178 368.633 156.481 367.33C157.784 366.026 159.552 365.294 161.395 365.294H265.637V358.364C265.637 356.526 264.907 354.764 263.608 353.464C262.308 352.164 260.545 351.434 258.707 351.434L161.395 351.409Z" fill="#FFE500" stroke="#45413C" stroke-width="1.90678" stroke-linecap="round" stroke-linejoin="round"/>
<path d="M258.687 379.195V365.305H161.395C159.551 365.305 157.784 366.038 156.48 367.341C155.177 368.644 154.445 370.412 154.445 372.255C154.445 374.098 155.177 375.866 156.48 377.169C157.784 378.473 159.551 379.205 161.395 379.205L258.687 379.195Z" fill="#FFF5E3" stroke="#45413C" stroke-width="1.90678" stroke-linecap="round" stroke-linejoin="round"/>
<path d="M273.453 268.017C271.147 267.978 268.857 268.399 266.715 269.254C264.573 270.11 262.623 271.383 260.979 273C259.334 274.617 258.028 276.545 257.136 278.672C256.245 280.799 255.786 283.083 255.786 285.389C255.786 287.695 256.245 289.979 257.136 292.106C258.028 294.233 259.334 296.161 260.979 297.778C262.623 299.395 264.573 300.668 266.715 301.524C268.857 302.379 271.147 302.8 273.453 302.761H395.07C396.913 302.761 398.681 303.493 399.984 304.797C401.288 306.1 402.02 307.868 402.02 309.711C402.02 311.554 401.288 313.322 399.984 314.625C398.681 315.928 396.913 316.661 395.07 316.661H273.453C265.228 316.557 257.374 313.217 251.594 307.364C245.814 301.51 242.573 293.615 242.573 285.389C242.573 277.163 245.814 269.268 251.594 263.414C257.374 257.561 265.228 254.221 273.453 254.117H395.07C396.913 254.117 398.681 254.85 399.984 256.153C401.288 257.456 402.02 259.224 402.02 261.067C402.02 262.91 401.288 264.678 399.984 265.981C398.681 267.285 396.913 268.017 395.07 268.017H273.453Z" fill="#FF6242" stroke="#45413C" stroke-width="1.90678" stroke-linecap="round" stroke-linejoin="round"/>
<path d="M395.071 302.76V268.016H273.454C271.148 267.977 268.858 268.397 266.716 269.253C264.574 270.108 262.624 271.382 260.98 272.999C259.335 274.616 258.029 276.544 257.137 278.671C256.246 280.798 255.787 283.081 255.787 285.388C255.787 287.694 256.246 289.977 257.137 292.104C258.029 294.231 259.335 296.16 260.98 297.777C262.624 299.394 264.574 300.667 266.716 301.523C268.858 302.378 271.148 302.799 273.454 302.76H395.071Z" fill="#FFF5E3" stroke="#45413C" stroke-width="1.90678" stroke-linecap="round" stroke-linejoin="round"/>
<path d="M395.07 281.91H346.421M332.522 281.91H318.627" stroke="#45413C" stroke-width="1.90678" stroke-linecap="round" stroke-linejoin="round"/>
<path d="M175.295 309.71C169.766 309.71 164.462 311.906 160.552 315.816C156.642 319.726 154.446 325.03 154.446 330.559C154.446 336.089 156.642 341.392 160.552 345.302C164.462 349.212 169.766 351.409 175.295 351.409H272.587C274.425 351.409 276.188 350.678 277.488 349.379C278.787 348.079 279.517 346.317 279.517 344.479V337.549H175.295C173.452 337.549 171.684 336.816 170.381 335.513C169.078 334.21 168.345 332.442 168.345 330.599C168.345 328.756 169.078 326.988 170.381 325.685C171.684 324.381 173.452 323.649 175.295 323.649H279.537V316.719C279.537 314.881 278.807 313.118 277.508 311.819C276.208 310.519 274.445 309.789 272.607 309.789L175.295 309.71Z" fill="#00B8F0" stroke="#45413C" stroke-width="1.90678" stroke-linecap="round" stroke-linejoin="round"/>
<path d="M272.588 337.509V323.609H175.296C173.452 323.609 171.685 324.341 170.381 325.645C169.078 326.948 168.346 328.716 168.346 330.559C168.346 332.402 169.078 334.17 170.381 335.473C171.685 336.777 173.452 337.509 175.296 337.509H272.588Z" fill="#FFF5E3" stroke="#45413C" stroke-width="1.90678" stroke-linecap="round" stroke-linejoin="round"/>
</svg>
