<svg width="26" height="38" viewBox="0 0 26 38" fill="none" xmlns="http://www.w3.org/2000/svg">
<path fill-rule="evenodd" clip-rule="evenodd" d="M6.84009 0H18.9999C22.7758 0 25.84 3.06415 25.84 6.84005C25.84 9.48611 24.3352 11.7825 22.1353 12.9199C24.3352 14.0574 25.84 16.3539 25.84 19C25.84 22.7759 22.7758 25.84 18.9999 25.84C16.852 25.84 14.9345 24.8485 13.6802 23.2986V31.16C13.6802 34.9359 10.616 38 6.84009 38C3.06418 38 0 34.9359 0 31.16C0 28.5139 1.50478 26.2174 3.70477 25.0799C1.50478 23.9425 0 21.646 0 19C0 16.3539 1.50477 14.0574 3.70473 12.9199C1.50477 11.7825 0 9.48611 0 6.84005C0 3.06415 3.06418 0 6.84009 0ZM1.52 6.84005C1.52 3.90363 3.90364 1.52 6.84009 1.52H12.1598V12.1599H6.84009L6.8236 12.1599C3.8947 12.151 1.52 9.77094 1.52 6.84005ZM12.1602 18.9276C12.1599 18.9517 12.1598 18.9758 12.1598 19C12.1598 19.0241 12.1599 19.0482 12.1602 19.0723V24.3199H6.84006C3.90364 24.32 1.52 21.9364 1.52 19C1.52 16.069 3.89479 13.6888 6.82374 13.6799L6.84009 13.6799H12.1598L12.1602 18.9276ZM13.6802 19.0637V18.9362C13.7143 16.0364 16.0729 13.6916 18.9781 13.6799H18.9999C19.0054 13.6799 19.0108 13.6799 19.0163 13.6799C21.9452 13.6888 24.32 16.069 24.32 19C24.32 21.9364 21.9364 24.32 18.9999 24.32C16.0847 24.32 13.7144 21.9708 13.6802 19.0637ZM14.7017 13.6799C14.3264 13.9836 13.9838 14.3261 13.6802 14.7013V13.6799H14.7017ZM19.0164 12.1599C19.0109 12.1599 19.0054 12.1599 18.9999 12.1599C18.9916 12.1599 18.9833 12.1599 18.975 12.16H13.6802V1.52H18.9999C21.9364 1.52 24.32 3.90363 24.32 6.84005C24.32 9.77094 21.9453 12.151 19.0164 12.1599ZM6.84009 25.8399C3.90364 25.8399 1.52 28.2235 1.52 31.16C1.52 34.0964 3.90364 36.48 6.84009 36.48C9.77655 36.48 12.1602 34.0964 12.1602 31.16V25.8399H6.84009Z" fill="white"/>
</svg>
