<svg width="79" height="79" viewBox="0 0 79 79" fill="none" xmlns="http://www.w3.org/2000/svg">
<path d="M11.7494 70.2828L5.57446 1.02515H73.4256L67.2438 70.2723L39.4587 77.9748L11.7494 70.2828Z" fill="#E44D26"/>
<path d="M39.5 72.0875L61.952 65.8625L67.2346 6.68784H39.5V72.0875Z" fill="#F16529"/>
<path d="M39.5 32.3746H28.2597L27.4833 23.6759H39.5V15.1822H18.2002L18.4039 17.4609L20.4912 40.8689H39.5V32.3746ZM39.5 54.4347L39.4623 54.4452L30.0027 51.89L29.3984 45.1164H20.8708L22.0607 58.4532L39.4611 63.2833L39.5 63.2728V54.4347Z" fill="#EBEBEB"/>
<path d="M39.4705 32.3746V40.8689H49.9299L48.9443 51.8851L39.4705 54.4421V63.2796L56.8844 58.4532L57.0122 57.0183L59.0081 34.6557L59.2149 32.3746H56.9264H39.4705ZM39.4705 15.1822V23.6759H59.9882L60.1586 21.7676L60.5462 17.4609L60.7492 15.1822H39.4705Z" fill="white"/>
</svg>
