<svg width="38" height="38" viewBox="0 0 38 38" fill="none" xmlns="http://www.w3.org/2000/svg">
<mask id="mask0_249_3714" style="mask-type:alpha" maskUnits="userSpaceOnUse" x="0" y="0" width="38" height="38">
<path d="M19.0018 0C13.8416 0 13.1941 0.0225629 11.1674 0.114792C9.14464 0.207417 7.76396 0.527646 6.55586 0.9975C5.3062 1.48279 4.24615 2.13196 3.19005 3.18844C2.13317 4.24452 1.48399 5.30456 0.997114 6.55381C0.526068 7.76229 0.205439 9.14335 0.114397 11.1653C0.0237501 13.1919 0 13.8399 0 19C0 24.1601 0.0229589 24.8057 0.114793 26.8324C0.207815 28.8551 0.528047 30.2357 0.997511 31.4438C1.4832 32.6935 2.13238 33.7535 3.18887 34.8096C4.24457 35.8665 5.30462 36.5172 6.55348 37.0025C7.76237 37.4724 9.14345 37.7926 11.1658 37.8852C13.1925 37.9774 13.8397 38 18.9994 38C24.1599 38 24.8056 37.9774 26.8322 37.8852C28.855 37.7926 30.2372 37.4724 31.4461 37.0025C32.6954 36.5172 33.7539 35.8665 34.8096 34.8096C35.8664 33.7535 36.5156 32.6935 37.0025 31.4442C37.4696 30.2357 37.7902 28.8547 37.8852 26.8328C37.9762 24.8061 38 24.1601 38 19C38 13.8399 37.9762 13.1923 37.8852 11.1657C37.7902 9.14296 37.4696 7.76229 37.0025 6.55421C36.5156 5.30456 35.8664 4.24452 34.8096 3.18844C33.7527 2.13156 32.6958 1.4824 31.4449 0.9975C30.2337 0.527646 28.8522 0.207417 26.8295 0.114792C24.8028 0.0225629 24.1576 0 18.9958 0H19.0018ZM17.2973 3.42396C17.8032 3.42317 18.3676 3.42396 19.0018 3.42396C24.0748 3.42396 24.6761 3.44217 26.6794 3.53321C28.532 3.61792 29.5374 3.92746 30.2071 4.18752C31.0938 4.5319 31.726 4.94356 32.3906 5.60856C33.0556 6.27356 33.4673 6.9069 33.8124 7.79356C34.0725 8.46252 34.3824 9.46794 34.4668 11.3204C34.5578 13.3234 34.5776 13.925 34.5776 18.9956C34.5776 24.0663 34.5578 24.6679 34.4668 26.6709C34.382 28.5234 34.0725 29.5288 33.8124 30.1977C33.4681 31.0844 33.0556 31.7158 32.3906 32.3804C31.7256 33.0454 31.0942 33.457 30.2071 33.8014C29.5382 34.0626 28.532 34.3714 26.6794 34.4561C24.6765 34.5471 24.0748 34.5669 19.0018 34.5669C13.9283 34.5669 13.3271 34.5471 11.3241 34.4561C9.4716 34.3706 8.46617 34.0611 7.79602 33.801C6.90934 33.4566 6.276 33.045 5.611 32.38C4.94599 31.715 4.53432 31.0832 4.18915 30.1961C3.92908 29.5272 3.61914 28.5218 3.53483 26.6693C3.44379 24.6664 3.42558 24.0647 3.42558 18.9909C3.42558 13.9171 3.44379 13.3186 3.53483 11.3157C3.61954 9.46319 3.92908 8.45777 4.18915 7.78802C4.53353 6.90135 4.94599 6.26802 5.611 5.60302C6.276 4.93802 6.90934 4.52635 7.79602 4.18119C8.46578 3.91994 9.4716 3.61119 11.3241 3.52608C13.0769 3.44692 13.7561 3.42317 17.2973 3.41921V3.42396ZM29.1439 6.57875C27.8852 6.57875 26.8639 7.59881 26.8639 8.85796C26.8639 10.1167 27.8852 11.138 29.1439 11.138C30.4027 11.138 31.424 10.1167 31.424 8.85796C31.424 7.59921 30.4027 6.57796 29.1439 6.57796V6.57875ZM19.0018 9.24271C13.6132 9.24271 9.24439 13.6115 9.24439 19C9.24439 24.3885 13.6132 28.7553 19.0018 28.7553C24.3903 28.7553 28.7576 24.3885 28.7576 19C28.7576 13.6115 24.3903 9.24271 19.0018 9.24271ZM19.0018 12.6667C22.4994 12.6667 25.3352 15.502 25.3352 19C25.3352 22.4976 22.4994 25.3333 19.0018 25.3333C15.5038 25.3333 12.6684 22.4976 12.6684 19C12.6684 15.502 15.5038 12.6667 19.0018 12.6667Z" fill="white"/>
</mask>
<g mask="url(#mask0_249_3714)">
<rect width="37.9995" height="37.9985" fill="white"/>
</g>
</svg>
