<svg width="36" height="36" viewBox="0 0 36 36" fill="none" xmlns="http://www.w3.org/2000/svg">
<mask id="mask0_249_3721" style="mask-type:alpha" maskUnits="userSpaceOnUse" x="0" y="0" width="36" height="36">
<path fill-rule="evenodd" clip-rule="evenodd" d="M36 36H28.6031V23.4015C28.6031 19.9473 27.2906 18.017 24.5566 18.017C21.5824 18.017 20.0285 20.0258 20.0285 23.4015V36H12.9V12H20.0285V15.2328C20.0285 15.2328 22.1719 11.2668 27.2648 11.2668C32.3555 11.2668 36 14.3754 36 20.8047V36ZM4.3957 8.85739C1.96758 8.85739 0 6.87438 0 4.4287C0 1.98302 1.96758 0 4.3957 0C6.82383 0 8.79023 1.98302 8.79023 4.4287C8.79023 6.87438 6.82383 8.85739 4.3957 8.85739ZM0.714844 36H8.14805V12H0.714844V36Z" fill="white"/>
</mask>
<g mask="url(#mask0_249_3721)">
<rect width="35.9995" height="35.9986" fill="white"/>
</g>
</svg>
