<svg width="38" height="38" viewBox="0 0 38 38" fill="none" xmlns="http://www.w3.org/2000/svg">
<mask id="mask0_249_3728" style="mask-type:alpha" maskUnits="userSpaceOnUse" x="0" y="0" width="38" height="38">
<path d="M29.6231 34.7551C34.6771 31.3406 38 25.5583 38 19C38 8.50649 29.4934 0 19 0C14.2962 0 9.99168 1.70927 6.6736 4.5406C5.36534 5.65694 4.21044 6.94771 3.24488 8.37692C1.19623 11.4093 0 15.065 0 19C0 19.5031 0.0195519 20.0016 0.0579381 20.4948C0.0585382 20.5025 0.0591429 20.5102 0.0597522 20.518C0.64406 27.9064 5.45669 34.1062 12.0759 36.6989C11.9099 35.1956 11.7597 32.8837 12.1418 31.2426C12.4871 29.7597 14.3697 21.7983 14.3697 21.7983C14.3697 21.7983 13.8014 20.6601 13.8014 18.9774C13.8014 16.3354 15.3327 14.3631 17.2394 14.3631C18.8604 14.3631 19.6434 15.5801 19.6434 17.0394C19.6434 18.0798 19.2206 19.449 18.7755 20.8906C18.5232 21.7078 18.2636 22.5484 18.0698 23.3656C17.6222 25.2567 19.0182 26.7989 20.8834 26.7989C24.2604 26.7989 26.8562 23.2382 26.8562 18.0984C26.8562 13.5491 23.5874 10.3684 18.9198 10.3684C13.5136 10.3684 10.3404 14.4233 10.3404 18.6139C10.3404 20.2469 10.9695 21.998 11.7544 22.9499C11.9097 23.1381 11.9324 23.3028 11.8862 23.4949C11.8049 23.8332 11.6675 24.391 11.5519 24.8606C11.4624 25.2239 11.386 25.5344 11.3585 25.6496C11.2757 25.9974 11.0831 26.0713 10.7231 25.9037C8.35008 24.7991 6.86643 21.3297 6.86643 18.543C6.86643 12.5495 11.2211 7.04523 19.4205 7.04523C26.0116 7.04523 31.1337 11.742 31.1337 18.0188C31.1337 24.5669 27.0049 29.8368 21.2744 29.8368C19.349 29.8368 17.5391 28.8366 16.9195 27.6551C16.9195 27.6551 15.9668 31.2827 15.7358 32.1718C15.3069 33.8221 14.1489 35.8907 13.3744 37.1527C15.1521 37.7031 17.0413 38 19 38C19.9395 38 20.8631 37.9318 21.7662 37.8001C24.6452 37.3802 27.3147 36.3146 29.6231 34.7551Z" fill="white"/>
</mask>
<g mask="url(#mask0_249_3728)">
<rect width="37.9995" height="37.9985" fill="white"/>
</g>
</svg>
