<svg width="474" height="198" viewBox="0 0 474 198" fill="none" xmlns="http://www.w3.org/2000/svg">
<g filter="url(#filter0_dd_53_292)">
<rect x="7" y="4" width="460" height="184" rx="14" fill="white"/>
<g clip-path="url(#clip0_53_292)">
<path d="M33.5824 66V39.8182H38.3253V62.0241H49.8565V66H33.5824ZM62.4616 66.3835C60.4929 66.3835 58.7926 65.9744 57.3608 65.1562C55.9375 64.3295 54.8423 63.1619 54.0753 61.6534C53.3082 60.1364 52.9247 58.3509 52.9247 56.2969C52.9247 54.277 53.3082 52.5043 54.0753 50.9787C54.8509 49.4446 55.9332 48.2514 57.3224 47.3991C58.7116 46.5384 60.3438 46.108 62.2188 46.108C63.429 46.108 64.571 46.304 65.6449 46.696C66.7273 47.0795 67.6818 47.6761 68.5085 48.4858C69.3438 49.2955 70 50.3267 70.4773 51.5795C70.9545 52.8239 71.1932 54.3068 71.1932 56.0284V57.4474H55.098V54.3281H66.7571C66.7486 53.4418 66.5568 52.6534 66.1818 51.9631C65.8068 51.2642 65.2827 50.7145 64.6094 50.3139C63.9446 49.9134 63.169 49.7131 62.2827 49.7131C61.3366 49.7131 60.5057 49.9432 59.7898 50.4034C59.0739 50.8551 58.5156 51.4517 58.1151 52.1932C57.723 52.9261 57.5227 53.7315 57.5142 54.6094V57.3324C57.5142 58.4744 57.723 59.4545 58.1406 60.2727C58.5582 61.0824 59.142 61.7045 59.892 62.1392C60.642 62.5653 61.5199 62.7784 62.5256 62.7784C63.1989 62.7784 63.8082 62.6847 64.3537 62.4972C64.8991 62.3011 65.3722 62.0156 65.7727 61.6406C66.1733 61.2656 66.4759 60.8011 66.6804 60.2472L71.0014 60.733C70.7287 61.875 70.2088 62.8722 69.4418 63.7244C68.6832 64.5682 67.7116 65.2244 66.527 65.6932C65.3423 66.1534 63.9872 66.3835 62.4616 66.3835ZM80.7589 66.3963C79.5146 66.3963 78.3938 66.1747 77.3967 65.7315C76.408 65.2798 75.6239 64.6151 75.0444 63.7372C74.4734 62.8594 74.1879 61.777 74.1879 60.4901C74.1879 59.3821 74.3924 58.4659 74.8015 57.7415C75.2106 57.017 75.7688 56.4375 76.4762 56.0028C77.1836 55.5682 77.9805 55.2401 78.8668 55.0185C79.7617 54.7884 80.6864 54.6222 81.641 54.5199C82.7915 54.4006 83.7248 54.294 84.4407 54.2003C85.1566 54.098 85.6765 53.9446 86.0004 53.7401C86.3327 53.527 86.4989 53.1989 86.4989 52.7557V52.679C86.4989 51.7159 86.2134 50.9702 85.6424 50.4418C85.0714 49.9134 84.2489 49.6491 83.1751 49.6491C82.0415 49.6491 81.1424 49.8963 80.4776 50.3906C79.8214 50.8849 79.3782 51.4687 79.1481 52.142L74.8271 51.5284C75.168 50.3352 75.7305 49.3381 76.5146 48.5369C77.2987 47.7273 78.2575 47.1222 79.391 46.7216C80.5245 46.3125 81.7773 46.108 83.1495 46.108C84.0955 46.108 85.0373 46.2188 85.9748 46.4403C86.9123 46.6619 87.7688 47.0284 88.5444 47.5398C89.32 48.0426 89.9421 48.7287 90.4109 49.598C90.8881 50.4673 91.1268 51.554 91.1268 52.858V66H86.6779V63.3026H86.5245C86.2433 63.848 85.8469 64.3594 85.3356 64.8366C84.8327 65.3054 84.1978 65.6847 83.4308 65.9744C82.6722 66.2557 81.7816 66.3963 80.7589 66.3963ZM81.9606 62.9957C82.8896 62.9957 83.695 62.8125 84.3768 62.446C85.0586 62.071 85.5827 61.5767 85.9492 60.9631C86.3242 60.3494 86.5117 59.6804 86.5117 58.956V56.642C86.3668 56.7614 86.1197 56.8722 85.7702 56.9744C85.4293 57.0767 85.0458 57.1662 84.6197 57.2429C84.1935 57.3196 83.7717 57.3878 83.354 57.4474C82.9364 57.5071 82.5742 57.5582 82.2674 57.6009C81.5771 57.6946 80.9592 57.848 80.4137 58.0611C79.8683 58.2741 79.4379 58.5724 79.1225 58.956C78.8072 59.331 78.6495 59.8168 78.6495 60.4134C78.6495 61.2656 78.9606 61.9091 79.5827 62.3438C80.2049 62.7784 80.9975 62.9957 81.9606 62.9957ZM95.7802 66V46.3636H100.267V49.6364H100.472C100.83 48.5028 101.444 47.6293 102.313 47.0156C103.191 46.3935 104.192 46.0824 105.317 46.0824C105.573 46.0824 105.858 46.0952 106.174 46.1207C106.498 46.1378 106.766 46.1676 106.979 46.2102V50.4673C106.783 50.3991 106.472 50.3395 106.046 50.2884C105.628 50.2287 105.223 50.1989 104.831 50.1989C103.988 50.1989 103.229 50.3821 102.556 50.7486C101.891 51.1065 101.367 51.6051 100.983 52.2443C100.6 52.8835 100.408 53.6207 100.408 54.456V66H95.7802ZM114.681 54.4943V66H110.054V46.3636H114.477V49.7003H114.707C115.159 48.6009 115.879 47.7273 116.868 47.0795C117.865 46.4318 119.096 46.108 120.562 46.108C121.917 46.108 123.098 46.3977 124.103 46.9773C125.118 47.5568 125.902 48.3963 126.456 49.4957C127.018 50.5952 127.295 51.929 127.287 53.4972V66H122.659V54.2131C122.659 52.9006 122.318 51.8736 121.636 51.1321C120.963 50.3906 120.029 50.0199 118.836 50.0199C118.027 50.0199 117.306 50.1989 116.676 50.5568C116.054 50.9062 115.564 51.4134 115.206 52.0781C114.856 52.7429 114.681 53.5483 114.681 54.4943ZM131.991 66V46.3636H136.619V66H131.991ZM134.318 43.5767C133.585 43.5767 132.954 43.3338 132.426 42.848C131.897 42.3537 131.633 41.7614 131.633 41.071C131.633 40.3722 131.897 39.7798 132.426 39.294C132.954 38.7997 133.585 38.5526 134.318 38.5526C135.059 38.5526 135.69 38.7997 136.21 39.294C136.738 39.7798 137.002 40.3722 137.002 41.071C137.002 41.7614 136.738 42.3537 136.21 42.848C135.69 43.3338 135.059 43.5767 134.318 43.5767ZM146.006 54.4943V66H141.378V46.3636H145.801V49.7003H146.031C146.483 48.6009 147.203 47.7273 148.192 47.0795C149.189 46.4318 150.42 46.108 151.886 46.108C153.241 46.108 154.422 46.3977 155.428 46.9773C156.442 47.5568 157.226 48.3963 157.78 49.4957C158.342 50.5952 158.619 51.929 158.611 53.4972V66H153.983V54.2131C153.983 52.9006 153.642 51.8736 152.96 51.1321C152.287 50.3906 151.354 50.0199 150.161 50.0199C149.351 50.0199 148.631 50.1989 148 50.5568C147.378 50.9062 146.888 51.4134 146.53 52.0781C146.18 52.7429 146.006 53.5483 146.006 54.4943ZM171.855 73.7727C170.193 73.7727 168.766 73.5469 167.572 73.0952C166.379 72.652 165.42 72.0554 164.696 71.3054C163.972 70.5554 163.469 69.7244 163.188 68.8125L167.355 67.8026C167.543 68.1861 167.815 68.5653 168.173 68.9403C168.531 69.3239 169.013 69.6392 169.618 69.8864C170.232 70.142 171.003 70.2699 171.932 70.2699C173.244 70.2699 174.331 69.9503 175.192 69.3111C176.053 68.6804 176.483 67.6406 176.483 66.1918V62.4716H176.253C176.014 62.9489 175.665 63.4389 175.205 63.9418C174.753 64.4446 174.152 64.8665 173.402 65.2074C172.661 65.5483 171.727 65.7188 170.602 65.7188C169.094 65.7188 167.726 65.3651 166.499 64.6577C165.28 63.9418 164.308 62.8764 163.584 61.4616C162.868 60.0384 162.51 58.2571 162.51 56.1179C162.51 53.9616 162.868 52.142 163.584 50.6591C164.308 49.1676 165.284 48.0384 166.511 47.2713C167.739 46.4957 169.107 46.108 170.615 46.108C171.766 46.108 172.712 46.304 173.453 46.696C174.203 47.0795 174.8 47.544 175.243 48.0895C175.686 48.6264 176.023 49.1335 176.253 49.6108H176.509V46.3636H181.072V66.3196C181.072 67.9986 180.672 69.3878 179.871 70.4872C179.07 71.5866 177.974 72.4091 176.585 72.9545C175.196 73.5 173.619 73.7727 171.855 73.7727ZM171.893 62.0881C172.874 62.0881 173.709 61.8494 174.399 61.3722C175.089 60.8949 175.614 60.2088 175.972 59.3139C176.33 58.419 176.509 57.3452 176.509 56.0923C176.509 54.8565 176.33 53.7741 175.972 52.8452C175.622 51.9162 175.102 51.196 174.412 50.6847C173.73 50.1648 172.891 49.9048 171.893 49.9048C170.862 49.9048 170.001 50.1733 169.311 50.7102C168.621 51.2472 168.101 51.9844 167.751 52.9219C167.402 53.8509 167.227 54.9077 167.227 56.0923C167.227 57.294 167.402 58.3466 167.751 59.25C168.109 60.1449 168.634 60.8437 169.324 61.3466C170.023 61.8409 170.879 62.0881 171.893 62.0881Z" fill="#16192C"/>
<path d="M33.358 112H31.5114L36.8523 97.4545H38.6705L44.0114 112H42.1648L37.8182 99.7557H37.7045L33.358 112ZM34.0398 106.318H41.483V107.881H34.0398V106.318ZM50.4815 112.227C49.4588 112.227 48.5781 111.986 47.8395 111.503C47.1009 111.02 46.5327 110.355 46.1349 109.507C45.7372 108.66 45.5384 107.691 45.5384 106.602C45.5384 105.494 45.742 104.517 46.1491 103.669C46.5611 102.817 47.134 102.152 47.8679 101.673C48.6065 101.19 49.4683 100.949 50.4531 100.949C51.2202 100.949 51.9115 101.091 52.527 101.375C53.1425 101.659 53.6468 102.057 54.0398 102.568C54.4328 103.08 54.6766 103.676 54.7713 104.358H53.0952C52.9673 103.861 52.6832 103.42 52.2429 103.037C51.8073 102.649 51.2202 102.455 50.4815 102.455C49.8281 102.455 49.2552 102.625 48.7628 102.966C48.2751 103.302 47.8939 103.778 47.6193 104.393C47.3494 105.004 47.2145 105.722 47.2145 106.545C47.2145 107.388 47.3471 108.122 47.6122 108.747C47.8821 109.372 48.2609 109.857 48.7486 110.203C49.241 110.549 49.8187 110.722 50.4815 110.722C50.9171 110.722 51.3125 110.646 51.6676 110.494C52.0227 110.343 52.3234 110.125 52.5696 109.841C52.8158 109.557 52.991 109.216 53.0952 108.818H54.7713C54.6766 109.462 54.4422 110.042 54.0682 110.558C53.6989 111.07 53.2088 111.477 52.598 111.78C51.992 112.078 51.2865 112.227 50.4815 112.227ZM61.3409 112.227C60.4318 112.227 59.6293 111.998 58.9332 111.538C58.2372 111.074 57.6927 110.421 57.2997 109.578C56.9067 108.731 56.7102 107.729 56.7102 106.574C56.7102 105.428 56.9067 104.434 57.2997 103.591C57.6927 102.748 58.2396 102.097 58.9403 101.638C59.6411 101.179 60.4508 100.949 61.3693 100.949C62.0795 100.949 62.6406 101.067 63.0526 101.304C63.4692 101.536 63.7865 101.801 64.0043 102.099C64.2268 102.393 64.3996 102.634 64.5227 102.824H64.6648V101.091H66.3409V112H64.7216V110.324H64.5227C64.3996 110.523 64.2244 110.774 63.9972 111.077C63.7699 111.375 63.4455 111.643 63.0241 111.879C62.6027 112.111 62.0417 112.227 61.3409 112.227ZM61.5682 110.722C62.2405 110.722 62.8087 110.546 63.2727 110.196C63.7367 109.841 64.0895 109.351 64.331 108.726C64.5724 108.096 64.6932 107.369 64.6932 106.545C64.6932 105.731 64.5748 105.018 64.3381 104.408C64.1013 103.792 63.7509 103.314 63.2869 102.973C62.8229 102.627 62.25 102.455 61.5682 102.455C60.858 102.455 60.2661 102.637 59.7926 103.001C59.3239 103.361 58.9711 103.851 58.7344 104.472C58.5024 105.087 58.3864 105.778 58.3864 106.545C58.3864 107.322 58.5047 108.027 58.7415 108.662C58.983 109.292 59.3381 109.794 59.8068 110.168C60.2803 110.537 60.8674 110.722 61.5682 110.722ZM73.7628 112.227C72.8537 112.227 72.0511 111.998 71.3551 111.538C70.6591 111.074 70.1146 110.421 69.7216 109.578C69.3286 108.731 69.1321 107.729 69.1321 106.574C69.1321 105.428 69.3286 104.434 69.7216 103.591C70.1146 102.748 70.6615 102.097 71.3622 101.638C72.063 101.179 72.8726 100.949 73.7912 100.949C74.5014 100.949 75.0625 101.067 75.4744 101.304C75.8911 101.536 76.2083 101.801 76.4261 102.099C76.6487 102.393 76.8215 102.634 76.9446 102.824H77.0866V97.4545H78.7628V112H77.1435V110.324H76.9446C76.8215 110.523 76.6463 110.774 76.419 111.077C76.1918 111.375 75.8674 111.643 75.446 111.879C75.0246 112.111 74.4635 112.227 73.7628 112.227ZM73.9901 110.722C74.6624 110.722 75.2306 110.546 75.6946 110.196C76.1586 109.841 76.5114 109.351 76.7528 108.726C76.9943 108.096 77.1151 107.369 77.1151 106.545C77.1151 105.731 76.9967 105.018 76.7599 104.408C76.5232 103.792 76.1728 103.314 75.7088 102.973C75.2448 102.627 74.6719 102.455 73.9901 102.455C73.2798 102.455 72.688 102.637 72.2145 103.001C71.7457 103.361 71.393 103.851 71.1562 104.472C70.9242 105.087 70.8082 105.778 70.8082 106.545C70.8082 107.322 70.9266 108.027 71.1634 108.662C71.4048 109.292 71.7599 109.794 72.2287 110.168C72.7022 110.537 73.2893 110.722 73.9901 110.722ZM86.6392 112.227C85.5881 112.227 84.6813 111.995 83.919 111.531C83.1615 111.062 82.5767 110.409 82.1648 109.571C81.7576 108.728 81.554 107.748 81.554 106.631C81.554 105.513 81.7576 104.528 82.1648 103.676C82.5767 102.819 83.1496 102.152 83.8835 101.673C84.6222 101.19 85.4839 100.949 86.4688 100.949C87.0369 100.949 87.598 101.044 88.152 101.233C88.706 101.422 89.2102 101.73 89.6648 102.156C90.1193 102.578 90.4815 103.136 90.7514 103.832C91.0213 104.528 91.1562 105.385 91.1562 106.403V107.114H82.7472V105.665H89.4517C89.4517 105.049 89.3286 104.5 89.0824 104.017C88.8409 103.534 88.4953 103.153 88.0455 102.874C87.6004 102.594 87.0748 102.455 86.4688 102.455C85.8011 102.455 85.2235 102.62 84.7358 102.952C84.2528 103.278 83.8812 103.705 83.6207 104.23C83.3603 104.756 83.2301 105.319 83.2301 105.92V106.886C83.2301 107.71 83.3722 108.409 83.6562 108.982C83.9451 109.55 84.3452 109.983 84.8565 110.281C85.3679 110.575 85.9621 110.722 86.6392 110.722C87.0795 110.722 87.4773 110.66 87.8324 110.537C88.1922 110.409 88.5024 110.22 88.7628 109.969C89.0232 109.713 89.2244 109.396 89.3665 109.017L90.9858 109.472C90.8153 110.021 90.5289 110.504 90.1264 110.92C89.724 111.332 89.2268 111.654 88.6349 111.886C88.0431 112.114 87.3778 112.227 86.6392 112.227ZM93.706 112V101.091H95.3253V102.795H95.4673C95.6946 102.213 96.0616 101.761 96.5682 101.439C97.0748 101.112 97.6832 100.949 98.3935 100.949C99.1132 100.949 99.7121 101.112 100.19 101.439C100.673 101.761 101.05 102.213 101.32 102.795H101.433C101.713 102.232 102.132 101.785 102.69 101.453C103.249 101.117 103.919 100.949 104.7 100.949C105.676 100.949 106.473 101.254 107.094 101.865C107.714 102.471 108.024 103.416 108.024 104.699V112H106.348V104.699C106.348 103.894 106.128 103.319 105.688 102.973C105.247 102.627 104.729 102.455 104.132 102.455C103.365 102.455 102.771 102.687 102.349 103.151C101.928 103.61 101.717 104.192 101.717 104.898V112H100.013V104.528C100.013 103.908 99.8116 103.409 99.4091 103.03C99.0066 102.646 98.4882 102.455 97.8537 102.455C97.4181 102.455 97.0109 102.571 96.6321 102.803C96.258 103.035 95.955 103.357 95.723 103.768C95.4957 104.176 95.3821 104.647 95.3821 105.182V112H93.706ZM111.089 112V101.091H112.765V112H111.089ZM111.941 99.2727C111.614 99.2727 111.333 99.1615 111.096 98.9389C110.864 98.7164 110.748 98.4489 110.748 98.1364C110.748 97.8239 110.864 97.5563 111.096 97.3338C111.333 97.1113 111.614 97 111.941 97C112.268 97 112.547 97.1113 112.779 97.3338C113.016 97.5563 113.134 97.8239 113.134 98.1364C113.134 98.4489 113.016 98.7164 112.779 98.9389C112.547 99.1615 112.268 99.2727 111.941 99.2727ZM119.954 112.227C119.045 112.227 118.243 111.998 117.547 111.538C116.85 111.074 116.306 110.421 115.913 109.578C115.52 108.731 115.324 107.729 115.324 106.574C115.324 105.428 115.52 104.434 115.913 103.591C116.306 102.748 116.853 102.097 117.554 101.638C118.254 101.179 119.064 100.949 119.983 100.949C120.693 100.949 121.254 101.067 121.666 101.304C122.083 101.536 122.4 101.801 122.618 102.099C122.84 102.393 123.013 102.634 123.136 102.824H123.278V101.091H124.954V112H123.335V110.324H123.136C123.013 110.523 122.838 110.774 122.61 111.077C122.383 111.375 122.059 111.643 121.637 111.879C121.216 112.111 120.655 112.227 119.954 112.227ZM120.181 110.722C120.854 110.722 121.422 110.546 121.886 110.196C122.35 109.841 122.703 109.351 122.944 108.726C123.186 108.096 123.306 107.369 123.306 106.545C123.306 105.731 123.188 105.018 122.951 104.408C122.715 103.792 122.364 103.314 121.9 102.973C121.436 102.627 120.863 102.455 120.181 102.455C119.471 102.455 118.879 102.637 118.406 103.001C117.937 103.361 117.584 103.851 117.348 104.472C117.116 105.087 117 105.778 117 106.545C117 107.322 117.118 108.027 117.355 108.662C117.596 109.292 117.951 109.794 118.42 110.168C118.894 110.537 119.481 110.722 120.181 110.722ZM134.109 112V97.4545H135.87V103.932H143.626V97.4545H145.387V112H143.626V105.494H135.87V112H134.109ZM155.561 107.54V101.091H157.238V112H155.561V110.153H155.448C155.192 110.707 154.794 111.179 154.255 111.567C153.715 111.95 153.033 112.142 152.209 112.142C151.527 112.142 150.921 111.993 150.391 111.695C149.861 111.392 149.444 110.937 149.141 110.331C148.838 109.72 148.686 108.951 148.686 108.023V101.091H150.363V107.909C150.363 108.705 150.585 109.339 151.03 109.812C151.48 110.286 152.053 110.523 152.749 110.523C153.166 110.523 153.589 110.416 154.02 110.203C154.456 109.99 154.82 109.663 155.114 109.223C155.412 108.783 155.561 108.222 155.561 107.54ZM160.535 112V97.4545H162.211V102.824H162.353C162.476 102.634 162.647 102.393 162.864 102.099C163.087 101.801 163.404 101.536 163.816 101.304C164.233 101.067 164.796 100.949 165.506 100.949C166.425 100.949 167.235 101.179 167.935 101.638C168.636 102.097 169.183 102.748 169.576 103.591C169.969 104.434 170.165 105.428 170.165 106.574C170.165 107.729 169.969 108.731 169.576 109.578C169.183 110.421 168.638 111.074 167.942 111.538C167.246 111.998 166.444 112.227 165.535 112.227C164.834 112.227 164.273 112.111 163.852 111.879C163.43 111.643 163.106 111.375 162.879 111.077C162.651 110.774 162.476 110.523 162.353 110.324H162.154V112H160.535ZM162.183 106.545C162.183 107.369 162.303 108.096 162.545 108.726C162.786 109.351 163.139 109.841 163.603 110.196C164.067 110.546 164.635 110.722 165.308 110.722C166.008 110.722 166.593 110.537 167.062 110.168C167.535 109.794 167.89 109.292 168.127 108.662C168.369 108.027 168.489 107.322 168.489 106.545C168.489 105.778 168.371 105.087 168.134 104.472C167.902 103.851 167.549 103.361 167.076 103.001C166.607 102.637 166.018 102.455 165.308 102.455C164.626 102.455 164.053 102.627 163.589 102.973C163.125 103.314 162.774 103.792 162.538 104.408C162.301 105.018 162.183 105.731 162.183 106.545ZM182.474 112.227C181.565 112.227 180.762 111.998 180.066 111.538C179.37 111.074 178.826 110.421 178.433 109.578C178.04 108.731 177.843 107.729 177.843 106.574C177.843 105.428 178.04 104.434 178.433 103.591C178.826 102.748 179.372 102.097 180.073 101.638C180.774 101.179 181.584 100.949 182.502 100.949C183.212 100.949 183.773 101.067 184.185 101.304C184.602 101.536 184.919 101.801 185.137 102.099C185.36 102.393 185.532 102.634 185.656 102.824H185.798V101.091H187.474V112H185.854V110.324H185.656C185.532 110.523 185.357 110.774 185.13 111.077C184.903 111.375 184.578 111.643 184.157 111.879C183.736 112.111 183.174 112.227 182.474 112.227ZM182.701 110.722C183.373 110.722 183.942 110.546 184.406 110.196C184.87 109.841 185.222 109.351 185.464 108.726C185.705 108.096 185.826 107.369 185.826 106.545C185.826 105.731 185.708 105.018 185.471 104.408C185.234 103.792 184.884 103.314 184.42 102.973C183.956 102.627 183.383 102.455 182.701 102.455C181.991 102.455 181.399 102.637 180.925 103.001C180.457 103.361 180.104 103.851 179.867 104.472C179.635 105.087 179.519 105.778 179.519 106.545C179.519 107.322 179.638 108.027 179.874 108.662C180.116 109.292 180.471 109.794 180.94 110.168C181.413 110.537 182 110.722 182.701 110.722ZM190.776 97.4545H192.452V109.159C192.452 109.689 192.512 110.061 192.63 110.274C192.748 110.487 192.992 110.589 193.362 110.58C193.56 110.57 193.707 110.556 193.802 110.537C193.901 110.513 193.991 110.49 194.072 110.466L194.413 111.915C194.266 111.957 194.081 111.995 193.859 112.028C193.636 112.066 193.404 112.085 193.163 112.085C192.367 112.085 191.771 111.867 191.373 111.432C190.975 110.996 190.776 110.39 190.776 109.614V97.4545ZM198.424 112L195.1 101.091H196.861L199.219 109.443H199.333L201.662 101.091H203.452L205.753 109.415H205.867L208.225 101.091H209.986L206.662 112H205.015L202.628 103.619H202.458L200.071 112H198.424ZM215.95 112.227C215.041 112.227 214.239 111.998 213.543 111.538C212.847 111.074 212.302 110.421 211.909 109.578C211.516 108.731 211.32 107.729 211.32 106.574C211.32 105.428 211.516 104.434 211.909 103.591C212.302 102.748 212.849 102.097 213.55 101.638C214.25 101.179 215.06 100.949 215.979 100.949C216.689 100.949 217.25 101.067 217.662 101.304C218.079 101.536 218.396 101.801 218.614 102.099C218.836 102.393 219.009 102.634 219.132 102.824H219.274V101.091H220.95V112H219.331V110.324H219.132C219.009 110.523 218.834 110.774 218.607 111.077C218.379 111.375 218.055 111.643 217.634 111.879C217.212 112.111 216.651 112.227 215.95 112.227ZM216.178 110.722C216.85 110.722 217.418 110.546 217.882 110.196C218.346 109.841 218.699 109.351 218.94 108.726C219.182 108.096 219.303 107.369 219.303 106.545C219.303 105.731 219.184 105.018 218.947 104.408C218.711 103.792 218.36 103.314 217.896 102.973C217.432 102.627 216.859 102.455 216.178 102.455C215.467 102.455 214.875 102.637 214.402 103.001C213.933 103.361 213.58 103.851 213.344 104.472C213.112 105.087 212.996 105.778 212.996 106.545C212.996 107.322 213.114 108.027 213.351 108.662C213.592 109.292 213.947 109.794 214.416 110.168C214.89 110.537 215.477 110.722 216.178 110.722ZM225.332 116.091C225.048 116.091 224.795 116.067 224.572 116.02C224.35 115.977 224.196 115.935 224.111 115.892L224.537 114.415C224.944 114.519 225.304 114.557 225.616 114.528C225.929 114.5 226.206 114.36 226.447 114.109C226.694 113.863 226.919 113.463 227.122 112.909L227.435 112.057L223.401 101.091H225.219L228.23 109.784H228.344L231.355 101.091H233.173L228.543 113.591C228.334 114.154 228.076 114.621 227.768 114.99C227.461 115.364 227.103 115.641 226.696 115.821C226.294 116.001 225.839 116.091 225.332 116.091ZM243.113 103.534L241.607 103.96C241.513 103.709 241.373 103.465 241.188 103.229C241.008 102.987 240.762 102.788 240.45 102.632C240.137 102.476 239.737 102.398 239.249 102.398C238.582 102.398 238.025 102.552 237.58 102.859C237.14 103.162 236.92 103.548 236.92 104.017C236.92 104.434 237.071 104.763 237.374 105.004C237.677 105.246 238.151 105.447 238.795 105.608L240.414 106.006C241.389 106.242 242.116 106.605 242.594 107.092C243.073 107.575 243.312 108.198 243.312 108.96C243.312 109.585 243.132 110.144 242.772 110.636C242.417 111.129 241.92 111.517 241.281 111.801C240.641 112.085 239.898 112.227 239.05 112.227C237.938 112.227 237.017 111.986 236.288 111.503C235.558 111.02 235.097 110.314 234.903 109.386L236.494 108.989C236.645 109.576 236.932 110.016 237.353 110.31C237.779 110.603 238.335 110.75 239.022 110.75C239.803 110.75 240.424 110.584 240.883 110.253C241.347 109.917 241.579 109.514 241.579 109.045C241.579 108.667 241.446 108.349 241.181 108.094C240.916 107.833 240.509 107.639 239.96 107.511L238.141 107.085C237.142 106.848 236.408 106.482 235.94 105.984C235.476 105.482 235.244 104.855 235.244 104.102C235.244 103.487 235.416 102.942 235.762 102.469C236.112 101.995 236.588 101.624 237.19 101.354C237.796 101.084 238.482 100.949 239.249 100.949C240.329 100.949 241.176 101.186 241.792 101.659C242.412 102.133 242.853 102.758 243.113 103.534ZM251.46 112V101.091H253.136V112H251.46ZM252.312 99.2727C251.985 99.2727 251.704 99.1615 251.467 98.9389C251.235 98.7164 251.119 98.4489 251.119 98.1364C251.119 97.8239 251.235 97.5563 251.467 97.3338C251.704 97.1113 251.985 97 252.312 97C252.639 97 252.918 97.1113 253.15 97.3338C253.387 97.5563 253.505 97.8239 253.505 98.1364C253.505 98.4489 253.387 98.7164 253.15 98.9389C252.918 99.1615 252.639 99.2727 252.312 99.2727ZM263.933 103.534L262.428 103.96C262.333 103.709 262.193 103.465 262.009 103.229C261.829 102.987 261.582 102.788 261.27 102.632C260.957 102.476 260.557 102.398 260.07 102.398C259.402 102.398 258.846 102.552 258.401 102.859C257.96 103.162 257.74 103.548 257.74 104.017C257.74 104.434 257.892 104.763 258.195 105.004C258.498 105.246 258.971 105.447 259.615 105.608L261.234 106.006C262.21 106.242 262.937 106.605 263.415 107.092C263.893 107.575 264.132 108.198 264.132 108.96C264.132 109.585 263.952 110.144 263.592 110.636C263.237 111.129 262.74 111.517 262.101 111.801C261.462 112.085 260.718 112.227 259.871 112.227C258.758 112.227 257.837 111.986 257.108 111.503C256.379 111.02 255.917 110.314 255.723 109.386L257.314 108.989C257.465 109.576 257.752 110.016 258.173 110.31C258.599 110.603 259.156 110.75 259.842 110.75C260.624 110.75 261.244 110.584 261.703 110.253C262.167 109.917 262.399 109.514 262.399 109.045C262.399 108.667 262.267 108.349 262.001 108.094C261.736 107.833 261.329 107.639 260.78 107.511L258.962 107.085C257.963 106.848 257.229 106.482 256.76 105.984C256.296 105.482 256.064 104.855 256.064 104.102C256.064 103.487 256.237 102.942 256.582 102.469C256.933 101.995 257.409 101.624 258.01 101.354C258.616 101.084 259.303 100.949 260.07 100.949C261.149 100.949 261.997 101.186 262.612 101.659C263.232 102.133 263.673 102.758 263.933 103.534ZM277.025 101.091V102.511H271.371V101.091H277.025ZM273.019 98.4773H274.695V108.875C274.695 109.348 274.764 109.704 274.901 109.94C275.043 110.172 275.223 110.329 275.441 110.409C275.663 110.485 275.898 110.523 276.144 110.523C276.328 110.523 276.48 110.513 276.598 110.494C276.717 110.471 276.811 110.452 276.882 110.438L277.223 111.943C277.11 111.986 276.951 112.028 276.748 112.071C276.544 112.118 276.286 112.142 275.973 112.142C275.5 112.142 275.036 112.04 274.581 111.837C274.132 111.633 273.757 111.323 273.459 110.906C273.166 110.49 273.019 109.964 273.019 109.33V98.4773ZM286.421 107.54V101.091H288.097V112H286.421V110.153H286.307C286.051 110.707 285.654 111.179 285.114 111.567C284.574 111.95 283.892 112.142 283.069 112.142C282.387 112.142 281.781 111.993 281.25 111.695C280.72 111.392 280.303 110.937 280 110.331C279.697 109.72 279.546 108.951 279.546 108.023V101.091H281.222V107.909C281.222 108.705 281.444 109.339 281.89 109.812C282.339 110.286 282.912 110.523 283.608 110.523C284.025 110.523 284.449 110.416 284.88 110.203C285.315 109.99 285.68 109.663 285.973 109.223C286.272 108.783 286.421 108.222 286.421 107.54ZM291.167 112V101.091H292.786V102.739H292.9C293.094 102.199 293.451 101.761 293.972 101.425C294.493 101.089 295.083 100.92 295.741 100.92C296.044 100.92 296.309 100.956 296.536 101.027C296.763 101.098 296.962 101.195 297.133 101.318L296.565 102.739C296.446 102.677 296.307 102.63 296.146 102.597C295.989 102.559 295.807 102.54 295.599 102.54C295.068 102.54 294.595 102.651 294.178 102.874C293.766 103.096 293.44 103.399 293.198 103.783C292.961 104.166 292.843 104.604 292.843 105.097V112H291.167ZM300.519 105.438V112H298.843V101.091H300.462V102.795H300.604C300.86 102.241 301.248 101.796 301.769 101.46C302.29 101.119 302.962 100.949 303.786 100.949C304.525 100.949 305.171 101.1 305.725 101.403C306.279 101.702 306.71 102.156 307.017 102.767C307.325 103.373 307.479 104.14 307.479 105.068V112H305.803V105.182C305.803 104.325 305.58 103.657 305.135 103.179C304.69 102.696 304.079 102.455 303.303 102.455C302.768 102.455 302.29 102.571 301.868 102.803C301.452 103.035 301.123 103.373 300.881 103.818C300.64 104.263 300.519 104.803 300.519 105.438ZM315.116 112.227C314.065 112.227 313.158 111.995 312.396 111.531C311.638 111.062 311.053 110.409 310.641 109.571C310.234 108.728 310.031 107.748 310.031 106.631C310.031 105.513 310.234 104.528 310.641 103.676C311.053 102.819 311.626 102.152 312.36 101.673C313.099 101.19 313.96 100.949 314.945 100.949C315.513 100.949 316.075 101.044 316.629 101.233C317.183 101.422 317.687 101.73 318.141 102.156C318.596 102.578 318.958 103.136 319.228 103.832C319.498 104.528 319.633 105.385 319.633 106.403V107.114H311.224V105.665H317.928C317.928 105.049 317.805 104.5 317.559 104.017C317.317 103.534 316.972 103.153 316.522 102.874C316.077 102.594 315.551 102.455 314.945 102.455C314.278 102.455 313.7 102.62 313.212 102.952C312.729 103.278 312.358 103.705 312.097 104.23C311.837 104.756 311.707 105.319 311.707 105.92V106.886C311.707 107.71 311.849 108.409 312.133 108.982C312.422 109.55 312.822 109.983 313.333 110.281C313.844 110.575 314.439 110.722 315.116 110.722C315.556 110.722 315.954 110.66 316.309 110.537C316.669 110.409 316.979 110.22 317.239 109.969C317.5 109.713 317.701 109.396 317.843 109.017L319.462 109.472C319.292 110.021 319.005 110.504 318.603 110.92C318.201 111.332 317.703 111.654 317.112 111.886C316.52 112.114 315.854 112.227 315.116 112.227ZM326.302 112.227C325.393 112.227 324.59 111.998 323.894 111.538C323.198 111.074 322.654 110.421 322.261 109.578C321.868 108.731 321.671 107.729 321.671 106.574C321.671 105.428 321.868 104.434 322.261 103.591C322.654 102.748 323.201 102.097 323.901 101.638C324.602 101.179 325.412 100.949 326.33 100.949C327.04 100.949 327.602 101.067 328.013 101.304C328.43 101.536 328.747 101.801 328.965 102.099C329.188 102.393 329.361 102.634 329.484 102.824H329.626V97.4545H331.302V112H329.683V110.324H329.484C329.361 110.523 329.185 110.774 328.958 111.077C328.731 111.375 328.406 111.643 327.985 111.879C327.564 112.111 327.003 112.227 326.302 112.227ZM326.529 110.722C327.201 110.722 327.77 110.546 328.234 110.196C328.698 109.841 329.05 109.351 329.292 108.726C329.533 108.096 329.654 107.369 329.654 106.545C329.654 105.731 329.536 105.018 329.299 104.408C329.062 103.792 328.712 103.314 328.248 102.973C327.784 102.627 327.211 102.455 326.529 102.455C325.819 102.455 325.227 102.637 324.754 103.001C324.285 103.361 323.932 103.851 323.695 104.472C323.463 105.087 323.347 105.778 323.347 106.545C323.347 107.322 323.466 108.027 323.702 108.662C323.944 109.292 324.299 109.794 324.768 110.168C325.241 110.537 325.828 110.722 326.529 110.722ZM344.661 112.227C343.676 112.227 342.812 111.993 342.069 111.524C341.33 111.055 340.753 110.4 340.336 109.557C339.924 108.714 339.718 107.729 339.718 106.602C339.718 105.466 339.924 104.474 340.336 103.626C340.753 102.779 341.33 102.121 342.069 101.652C342.812 101.183 343.676 100.949 344.661 100.949C345.646 100.949 346.508 101.183 347.246 101.652C347.99 102.121 348.567 102.779 348.979 103.626C349.396 104.474 349.604 105.466 349.604 106.602C349.604 107.729 349.396 108.714 348.979 109.557C348.567 110.4 347.99 111.055 347.246 111.524C346.508 111.993 345.646 112.227 344.661 112.227ZM344.661 110.722C345.409 110.722 346.025 110.53 346.508 110.146C346.991 109.763 347.348 109.259 347.58 108.634C347.812 108.009 347.928 107.331 347.928 106.602C347.928 105.873 347.812 105.194 347.58 104.564C347.348 103.934 346.991 103.425 346.508 103.037C346.025 102.649 345.409 102.455 344.661 102.455C343.913 102.455 343.298 102.649 342.815 103.037C342.332 103.425 341.974 103.934 341.742 104.564C341.51 105.194 341.394 105.873 341.394 106.602C341.394 107.331 341.51 108.009 341.742 108.634C341.974 109.259 342.332 109.763 342.815 110.146C343.298 110.53 343.913 110.722 344.661 110.722ZM353.839 105.438V112H352.163V101.091H353.782V102.795H353.924C354.18 102.241 354.568 101.796 355.089 101.46C355.61 101.119 356.282 100.949 357.106 100.949C357.845 100.949 358.491 101.1 359.045 101.403C359.599 101.702 360.03 102.156 360.338 102.767C360.645 103.373 360.799 104.14 360.799 105.068V112H359.123V105.182C359.123 104.325 358.901 103.657 358.456 103.179C358.011 102.696 357.4 102.455 356.623 102.455C356.088 102.455 355.61 102.571 355.189 102.803C354.772 103.035 354.443 103.373 354.201 103.818C353.96 104.263 353.839 104.803 353.839 105.438ZM366.078 97.4545L365.936 107.909H364.288L364.146 97.4545H366.078ZM365.112 112.114C364.762 112.114 364.461 111.988 364.21 111.737C363.959 111.486 363.834 111.186 363.834 110.835C363.834 110.485 363.959 110.184 364.21 109.933C364.461 109.682 364.762 109.557 365.112 109.557C365.463 109.557 365.763 109.682 366.014 109.933C366.265 110.184 366.391 110.485 366.391 110.835C366.391 111.067 366.331 111.28 366.213 111.474C366.099 111.669 365.946 111.825 365.751 111.943C365.562 112.057 365.349 112.114 365.112 112.114ZM371.645 97.4545L371.502 107.909H369.855L369.713 97.4545H371.645ZM370.679 112.114C370.328 112.114 370.028 111.988 369.777 111.737C369.526 111.486 369.4 111.186 369.4 110.835C369.4 110.485 369.526 110.184 369.777 109.933C370.028 109.682 370.328 109.557 370.679 109.557C371.029 109.557 371.33 109.682 371.581 109.933C371.832 110.184 371.957 110.485 371.957 110.835C371.957 111.067 371.898 111.28 371.779 111.474C371.666 111.669 371.512 111.825 371.318 111.943C371.128 112.057 370.915 112.114 370.679 112.114ZM379.086 113.4H399.086V93.4H379.086V113.4Z" fill="#425466"/>
<rect x="31" y="140" width="40" height="22" rx="11" fill="#4C6FFF"/>
<ellipse cx="59.534" cy="151" rx="8.20513" ry="8" fill="white"/>
</g>
</g>
<defs>
<filter id="filter0_dd_53_292" x="0" y="0" width="474" height="198" filterUnits="userSpaceOnUse" color-interpolation-filters="sRGB">
<feFlood flood-opacity="0" result="BackgroundImageFix"/>
<feColorMatrix in="SourceAlpha" type="matrix" values="0 0 0 0 0 0 0 0 0 0 0 0 0 0 0 0 0 0 127 0" result="hardAlpha"/>
<feMorphology radius="1" operator="erode" in="SourceAlpha" result="effect1_dropShadow_53_292"/>
<feOffset dy="3"/>
<feGaussianBlur stdDeviation="4"/>
<feColorMatrix type="matrix" values="0 0 0 0 0.196078 0 0 0 0 0.196078 0 0 0 0 0.278431 0 0 0 0.05 0"/>
<feBlend mode="normal" in2="BackgroundImageFix" result="effect1_dropShadow_53_292"/>
<feColorMatrix in="SourceAlpha" type="matrix" values="0 0 0 0 0 0 0 0 0 0 0 0 0 0 0 0 0 0 127 0" result="hardAlpha"/>
<feOffset/>
<feGaussianBlur stdDeviation="0.5"/>
<feColorMatrix type="matrix" values="0 0 0 0 0.0470588 0 0 0 0 0.101961 0 0 0 0 0.294118 0 0 0 0.24 0"/>
<feBlend mode="normal" in2="effect1_dropShadow_53_292" result="effect2_dropShadow_53_292"/>
<feBlend mode="normal" in="SourceGraphic" in2="effect2_dropShadow_53_292" result="shape"/>
</filter>
<clipPath id="clip0_53_292">
<rect width="379" height="134" fill="white" transform="translate(31 28)"/>
</clipPath>
</defs>
</svg>
